<?xml version="1.0" encoding="UTF-8"?>
<svg id="Capa_1" data-name="Capa 1" xmlns="http://www.w3.org/2000/svg" viewBox="0 0 122.88 38.44">
  <defs>
    <style>
      .cls-1 {
        fill: #010101;
      }
    </style>
  </defs>
  <path class="cls-1" d="m30.34,30.82c.27,1.15.3,2.18.08,3.11s-.63,1.73-1.23,2.4c-.6.67-1.38,1.19-2.33,1.56-.96.37-2.04.55-3.24.55s-2.54-.36-3.85-1.07c-1.31-.71-2.54-1.52-3.69-2.42-1.15-.9-2.15-1.76-3.01-2.58-.86-.82-1.48-1.34-1.86-1.56-.49.63-1.08,1.15-1.76,1.58-.68.42-1.41.72-2.17.9-.77.18-1.54.23-2.31.17-.78-.07-1.5-.27-2.17-.62s-1.25-.82-1.74-1.43S.22,30.01.03,29.05c-.06-.49-.02-.99.1-1.5.12-.51.33-.98.61-1.43.29-.45.67-.87,1.15-1.25.48-.38,1.06-.68,1.74-.9.96-.3,1.89-.37,2.81-.2.92.16,1.84.48,2.77.94.06-.06.12-.14.21-.25.08-.11.21-.31.37-.59.17-.29.38-.68.66-1.19.27-.51.64-1.2,1.09-2.09.45-.89,1-1.99,1.66-3.32.66-1.32,1.45-2.93,2.38-4.81-1.29.22-2.43.52-3.42.9-1,.38-1.74.93-2.23,1.64-.68,1.01-.97,2-.86,2.97.11.97.46,1.85,1.07,2.64-1.2.96-2.38,1.38-3.54,1.27-1.16-.11-2.16-.53-2.99-1.27-.83-.74-1.42-1.66-1.76-2.77-.34-1.11-.28-2.19.19-3.26.57-1.26,1.4-2.24,2.48-2.95,1.08-.71,2.3-1.23,3.67-1.56,1.37-.33,2.82-.53,4.36-.59,1.54-.07,3.07-.12,4.57-.14.35-.6.79-1.37,1.31-2.29s1.11-1.79,1.78-2.58c.67-.79,1.43-1.43,2.27-1.93s1.79-.61,2.83-.37c.68.11,1.3.39,1.85.84.54.45.95,1,1.23,1.64s.39,1.32.37,2.03c-.03.71-.26,1.37-.69,1.97-.69.93-1.66,1.61-2.93,2.03-1.27.42-2.64.76-4.11,1-.35,1.07-.75,2.22-1.17,3.46-.43,1.24-.92,2.54-1.49,3.89s-1.23,2.75-1.95,4.18c-.73,1.43-1.58,2.86-2.56,4.28.44.14,1,.4,1.7.78.69.38,1.47.79,2.33,1.23s1.79.85,2.79,1.25c.99.4,2.03.69,3.11.88,1.07.19,2.17.24,3.29.14s2.23-.42,3.32-.96Zm-23.39-3.89c-.66-.36-1.22-.57-1.68-.66-.47-.08-.83-.07-1.11.04-.27.11-.46.27-.55.47-.1.21-.12.42-.06.64.03.19.11.36.25.51s.34.23.6.25c.26.02.59-.07,1-.25.41-.18.93-.51,1.56-1ZM25.67,4.84c-.85-.14-1.54.15-2.09.86s-1.07,1.72-1.55,3.03c.25.22.61.3,1.08.25.48-.06.97-.21,1.46-.45.49-.25.93-.54,1.31-.88.39-.34.61-.69.7-1.05.11-.41.09-.79-.07-1.15-.15-.36-.43-.56-.84-.62Z"/>
  <path class="cls-1" d="m26.16,30.49c-1.39.06-2.53-.14-3.4-.59-.88-.45-1.53-1.07-1.97-1.87-.44-.79-.66-1.71-.68-2.76-.01-1.05.12-2.13.41-3.24.29-1.11.72-2.21,1.31-3.3s1.27-2.08,2.05-2.97c.78-.89,1.64-1.63,2.58-2.21.94-.59,1.92-.94,2.93-1.05,1.17-.11,2.19.06,3.05.49s1.53,1.07,2.01,1.89c.48.82.76,1.77.84,2.85.08,1.08-.07,2.19-.45,3.34-.25,1.07-.62,2.12-1.11,3.17-.49,1.05-1.1,2.01-1.82,2.87-.72.86-1.56,1.59-2.52,2.19s-2.03,1-3.23,1.19Zm.86-6.23c.76.08,1.46-.08,2.09-.49.63-.41,1.17-.95,1.62-1.62.45-.67.81-1.42,1.08-2.25.27-.83.44-1.62.49-2.38.05-.75,0-1.4-.19-1.95-.18-.55-.47-.89-.88-1.02-.52-.16-1.07-.05-1.66.35-.59.4-1.16.94-1.7,1.62-.55.68-1.03,1.45-1.43,2.29-.41.85-.69,1.66-.84,2.44s-.12,1.45.08,2.01c.21.56.65.9,1.33,1Z"/>
  <path class="cls-1" d="m43.16,29.3c-1.28.85-2.43,1.31-3.44,1.39s-1.86-.09-2.56-.51c-.7-.43-1.22-1.05-1.56-1.87-.34-.82-.48-1.69-.43-2.62.05-.71.2-1.44.43-2.19s.5-1.5.8-2.23c.19-.49.54-1.24,1.06-2.23s1.1-2.13,1.74-3.4c.64-1.27,1.3-2.63,1.99-4.08.68-1.45,1.28-2.87,1.8-4.26.52-1.39.91-2.72,1.19-3.97.27-1.26.34-2.34.21-3.24.76-.17,1.51-.11,2.25.16.74.27,1.34.7,1.8,1.29.46.59.75,1.3.86,2.13s-.05,1.73-.49,2.68c-.36.77-.86,1.75-1.52,2.95-.65,1.2-1.34,2.51-2.05,3.93s-1.39,2.9-2.03,4.44c-.64,1.54-1.11,3.04-1.41,4.49-.3,1.45-.38,2.79-.23,4.04s.68,2.27,1.58,3.09Z"/>
  <path class="cls-1" d="m61.47,29.67c-1.09.74-2.08,1.14-2.97,1.21s-1.64-.1-2.25-.51c-.61-.41-1.09-.99-1.41-1.74-.33-.75-.48-1.56-.45-2.44-.55.98-1.25,1.86-2.11,2.62-.86.77-1.89,1.15-3.09,1.15-.85,0-1.59-.17-2.23-.49-.64-.33-1.17-.78-1.58-1.35-.41-.57-.7-1.24-.86-1.99-.16-.75-.18-1.56-.04-2.44.22-1.45.65-2.79,1.29-4.03.64-1.24,1.41-2.34,2.32-3.28.9-.94,1.87-1.71,2.91-2.3,1.04-.59,2.04-.94,3.01-1.07.97-.12,1.85,0,2.64.39.79.38,1.39,1.07,1.8,2.05.17-.79.14-1.48-.08-2.05.65-.33,1.32-.4,2.01-.21.68.19,1.24.57,1.68,1.13s.7,1.25.78,2.07c.08.82-.12,1.71-.61,2.66-.08.14-.22.44-.41.9-.19.47-.4,1.02-.61,1.66-.22.64-.41,1.34-.57,2.09-.16.75-.27,1.5-.31,2.25-.04.75.03,1.45.2,2.09s.5,1.18.96,1.62Zm-6.23-7.41c.11-.08.25-.23.41-.45.19-.41.38-.82.57-1.23.19-.41.4-.82.61-1.23.44-1.2.59-2.16.45-2.89s-.44-1.22-.9-1.5c-.55-.27-1.1-.29-1.66-.06s-1.08.61-1.58,1.15c-.49.53-.91,1.16-1.27,1.88-.35.73-.59,1.44-.7,2.13-.11.7-.05,1.33.17,1.91.22.57.64.97,1.27,1.19.35.14.75.14,1.19,0s.91-.44,1.43-.9Z"/>
  <path class="cls-1" d="m71.78,16.9c.17,1.04.52,1.78,1.04,2.24.52.45,1.08.68,1.68.68s1.24-.18,1.88-.55c.64-.37,1.19-.87,1.62-1.49.43-.63.72-1.34.88-2.14.15-.8.05-1.65-.3-2.56-.48-1.21-.65-2.49-.52-3.83.13-1.34.51-2.57,1.13-3.7.63-1.12,1.49-2.07,2.6-2.85,1.1-.78,2.41-1.19,3.92-1.23,1.82-.04,3.28.36,4.38,1.2,1.1.84,1.78,1.82,2.05,2.92.26,1.1.06,2.16-.59,3.18s-1.82,1.68-3.51,1.98c.39-.82.46-1.58.23-2.27s-.6-1.18-1.1-1.46c-.5-.28-1.03-.27-1.62.03-.58.3-1.02,1.06-1.33,2.27-.3,1.17-.29,2.25.04,3.24.32,1,.74,1.99,1.26,2.99s1.01,2.02,1.46,3.08c.45,1.06.63,2.24.55,3.53-.3,2.21-1.12,3.95-2.47,5.22s-2.85,2.12-4.51,2.53c-1.66.41-3.35.42-5.06.03-1.71-.39-3.09-1.16-4.15-2.3-1.06-1.15-1.64-2.62-1.75-4.41-.11-1.79.62-3.9,2.17-6.32Z"/>
  <path class="cls-1" d="m104.6,27.63c-.98.68-1.89,1.08-2.72,1.19s-1.55.01-2.15-.29c-.6-.3-1.09-.76-1.48-1.37-.38-.62-.61-1.3-.69-2.07-.55.77-1.13,1.44-1.74,2.03-.61.59-1.25,1.03-1.9,1.33-.74.36-1.45.46-2.15.33-.7-.14-1.3-.45-1.82-.94s-.91-1.11-1.19-1.84c-.27-.74-.37-1.52-.29-2.33.11-1.07.43-2.17.96-3.3.53-1.13,1.07-2.25,1.62-3.34.54-1.09.98-2.12,1.31-3.09s.34-1.82.04-2.56c.66-.33,1.32-.4,2.01-.21.68.19,1.24.57,1.68,1.13s.7,1.25.78,2.07c.08.82-.12,1.71-.62,2.66-.08.17-.23.49-.45.96s-.44,1.03-.65,1.66c-.06.33-.02.71.1,1.15.12.44.33.76.62.96s.65.21,1.1.02c.45-.19.99-.72,1.62-1.6.35-.82.75-1.64,1.19-2.46.44-.82.82-1.6,1.15-2.36.33-.75.56-1.47.7-2.15.14-.68.1-1.3-.12-1.84.66-.33,1.32-.4,2.01-.21.68.19,1.24.57,1.68,1.13s.7,1.25.78,2.07c.08.82-.12,1.71-.62,2.66-.08.14-.22.44-.41.9-.19.47-.4,1.02-.61,1.66-.22.64-.41,1.34-.57,2.09-.16.75-.27,1.5-.31,2.25-.04.75.03,1.45.2,2.09s.5,1.18.96,1.62Z"/>
  <path class="cls-1" d="m107.18,12.1c.33-.52.74-.96,1.23-1.31s1.03-.6,1.62-.72c.59-.12,1.19-.13,1.8-.02.61.11,1.19.37,1.74.78.49.38.92.9,1.29,1.56.37.66.7,1.42,1,2.29.88-1.09,1.61-2.2,2.21-3.34s.94-2.22,1.02-3.26c.52.16,1.01.36,1.48.57.46.22.87.47,1.23.74.36.27.63.58.82.92s.27.72.25,1.13c-.06.77-.52,1.75-1.39,2.95-.87,1.2-2.36,2.62-4.47,4.26.27,1.07.57,2.12.88,3.18.31,1.05.67,2,1.06,2.85.4.85.87,1.56,1.41,2.13s1.19.92,1.93,1.02c-1.78,1.48-3.23,2.3-4.36,2.48s-2.06-.07-2.79-.74c-.72-.67-1.3-1.66-1.72-2.97-.42-1.31-.8-2.72-1.13-4.22-1.5,1.39-2.53,2.66-3.09,3.79-.56,1.13-.79,2.08-.68,2.85-.96-.41-1.62-.9-1.99-1.45-.37-.56-.51-1.15-.43-1.76.08-.62.33-1.24.76-1.89.42-.64.95-1.24,1.58-1.78.44-.38.92-.82,1.46-1.31.53-.49,1.08-1.01,1.66-1.56-.22-.9-.45-1.76-.7-2.56-.24-.81-.54-1.54-.88-2.19s-.74-1.19-1.21-1.62c-.47-.42-1-.69-1.6-.8Z"/>
</svg>