<?xml version="1.0" encoding="UTF-8"?>
<svg id="Capa_1" data-name="Capa 1" xmlns="http://www.w3.org/2000/svg" viewBox="0 0 193.42 64.6">
  <defs>
    <style>
      .cls-1 {
        fill: #010101;
      }

      .cls-2 {
        fill: #fee8c5;
      }

      .cls-3 {
        fill: #6c605a;
      }

      .cls-4 {
        fill: #dac6a8;
      }

      .cls-5 {
        fill: #a3d2b3;
      }

      .cls-6 {
        fill: #453934;
      }

      .cls-7 {
        fill: #54433c;
      }

      .cls-8 {
        fill: #2b1c16;
      }

      .cls-9 {
        fill: #4b3d35;
      }

      .cls-10 {
        fill: #483b34;
      }

      .cls-11 {
        fill: #483a32;
      }

      .cls-12 {
        fill: #2c1d17;
      }

      .cls-13 {
        fill: #3a322a;
      }

      .cls-14 {
        fill: #3a332c;
      }

      .cls-15 {
        fill: #39322b;
      }

      .cls-16 {
        fill: #493b35;
      }

      .cls-17 {
        fill: #473a35;
      }

      .cls-18 {
        fill: #5d4c46;
      }

      .cls-19 {
        fill: #53423a;
      }

      .cls-20 {
        fill: #514139;
      }

      .cls-21 {
        fill: #52423a;
      }

      .cls-22 {
        fill: #4f4038;
      }
    </style>
  </defs>
  <path class="cls-12" d="m70.69,1.38c1.32.59,2.64,1.32,3.96,2.05,1.47,1.32,2.05,2.94,2.05,4.84,0,1.03-.29,2.05-.59,3.08-.88,2.05-2.05,4.11-3.23,6.16-1.03,1.76-1.91,3.67-2.94,5.58-.15.44-.59.73-.88,1.03-1.91,2.2-3.38,4.7-4.26,7.34-.44,1.32-.73,2.5-.88,3.96,0,.15-.15.29,0,.44v1.61c0,1.17.29,2.05.73,3.08.15.15.29.29.29.59.15,1.32.88,2.35,1.76,3.08q.73.73-.15,1.32c-1.47,1.03-3.08,1.91-4.84,2.35-1.03.29-2.05.29-3.23.15-.44,0-.73-.29-1.17-.44-.88-.44-1.76-1.03-2.79-1.47,0,.15-.29,0-.29-.15.15-.15.29-.15.44,0,2.35.59,4.55-.15,6.6-1.32.59-.29,1.17-.73,1.61-1.03.29-.29.29-.44,0-.73-.59-.59-1.17-1.03-1.47-1.91-.15-.29-.29-.59-.15-.88v-.15c-.73-1.17-.44-2.35-.44-3.67,0-.59,0-1.03.15-1.61,0-.59.15-1.03.29-1.61.59-2.94,1.76-5.87,3.08-8.66.44-1.17,1.03-2.2,1.47-3.23.15-.15.15-.29.44-.44.29.29.59.44.73.88v-.59c-.15-.29-.44-.29-.15-.73.15-.15.15-.44.44-.59.29-.15.29-.44,0-.73s.15-.44.15-.59c.44-1.32,1.17-2.64,1.91-3.82.44-.88.88-1.76,1.47-2.64.59-1.17,1.17-2.35,1.61-3.67.44-1.61.29-3.08-.29-4.55-.29-.59-.59-1.17-1.03-1.61-.29-.15-.59-.29-.44-.73h0Z"/>
  <path class="cls-8" d="m40.9,6.37c1.03.44,2.05,1.03,3.08,1.61.29.15.59.29.73.44,2.2,1.76,2.79,5.58,1.61,7.78-.59,1.17-1.17,2.2-2.35,2.79-.15.15-.29.44-.59.59-.73.29-1.61.44-2.35.73-.88.44-1.76.88-2.64,1.47l-.15.15h-.29c-.73.15-1.47.44-2.35.59-.15,0-.29.15-.29.29-.29.73-.59,1.47-.73,2.35-.44.88-1.17,1.61-1.61,2.5-1.47,2.2-2.5,4.4-3.23,6.9q0,.15-.15.29v1.91c-.15.29,0,.44,0,.73,0,.44-.15.73-.15,1.03-.73,1.17-1.32,2.5-2.05,3.52-.44.73-.88,1.61-1.47,2.35-.29.15-.59,0-.73-.15-.88-.44-1.61-.88-2.5-1.17-.59-.29-.73-.44-.29-1.03,1.17-1.76,2.2-3.67,3.23-5.58,1.61-3.23,3.08-6.31,4.26-9.69.73-1.91,1.32-3.82,2.05-5.72.15-.59.59-.88,1.17-1.03,1.61-.29,3.23-1.03,4.84-1.47.15,0,.29,0,.29-.15,1.03-.44,1.91-1.03,2.79-1.76,1.32-1.17,2.35-2.64,2.5-4.4,0-.29.15-.59.15-.88,0,0,0-.15.15-.15s.59,0,.44-.15c0-.29-.29,0-.59,0-.15-.15-.15-.29-.15-.44-.29-1.47-.88-2.79-1.91-3.82-.73-.15-.88-.29-.73-.44h0Z"/>
  <path class="cls-12" d="m113.99,47.61c-.29,0-.59-.29-.88-.44-.15-.29-.29-.44-.44-.73-.15.15-.15.29-.29.29-.88-.29-1.76-.88-2.5-1.32,0,0-.15,0-.15-.15,0-.29.15-.29.15-.29.15,0,.29,0,.44.15,2.35.73,4.84.73,7.34.29s4.7-1.47,6.75-2.94c3.23-2.35,4.99-5.43,5.72-9.39.29-2.05.15-3.96-.73-5.87-.59-1.47-1.32-2.94-2.05-4.4-.59-1.17-1.03-2.35-1.47-3.52-.73-2.35-.29-4.4.59-6.6.15-.44.59-.73.88-1.03.88-.73,2.05-.59,2.64.44.59,1.03.88,1.91.29,3.08-.29.59-.44,1.32-.73,2.05-.15,1.32-.29,2.64.15,3.82.44,1.47,1.17,2.79,1.76,4.11.88,1.61,1.61,3.38,2.35,5.14,0,.29,0,.44-.15.59-.59,1.32-1.17,2.64-1.61,4.11q0,.15-.15.29v1.03c-.15.29-.15.44-.15.59v.59c0,.59-.15,1.17,0,1.76,0,.15-.15.29,0,.44.15.29.29.59.29.88-.29.73-.88,1.32-1.32,1.91-.15.15-.29.15-.29.29-1.47,1.61-3.23,2.94-5.28,3.82-2.2,1.03-4.4,1.47-6.75,1.47-1.47.15-2.94,0-4.4-.44h0Z"/>
  <path class="cls-6" d="m102.39,26.92c.15.44.15.88.29,1.32.29.59.15,1.03.15,1.61-.15,1.03-.44,1.91-.88,2.79-1.47,3.08-2.5,6.31-2.94,9.69-.15.88-.15,1.76.15,2.5.15,1.03.59,1.76,1.47,2.5.44.29.44.59,0,.88-1.47,1.17-3.23,2.2-5.14,2.5-1.17.15-2.35,0-3.52-.59-.88-.44-1.76-.73-2.5-1.47,0-.29.29-.29.44-.29,1.76.29,3.38-.29,4.99-1.17.59-.29,1.03-.73,1.61-1.03.29-.15.29-.44,0-.59-1.03-1.03-1.47-2.2-1.47-3.67,0-.15,0-.29-.15-.29-.29-.29-.29-.59,0-.73.15-.15.15-.29.15-.44.15-2.79,1.03-5.58,2.2-8.07.29-.88.73-1.61,1.17-2.5.73-1.76.73-3.52,0-5.14-.15-.44-.44-.88-.88-1.32-.15-.15-.29-.29-.15-.44,1.03.44,2.05,1.03,3.08,1.61.88.15,1.47,1.17,1.91,2.35h0Z"/>
  <path class="cls-15" d="m97.26,22.51c0,.15.15.29.29.44.88,1.03,1.32,2.05,1.47,3.38.15,1.32-.15,2.5-.73,3.67-.73,1.47-1.32,2.94-1.91,4.55-.44,1.32-.88,2.79-1.03,4.26-.15.44-.15,1.03-.15,1.61,0,.29,0,.44-.29.59q-.15.15,0,.29c.29.15.29.29.29.59,0,.88.15,1.61.59,2.35.15.44.44.73.73,1.03.44.44.44.73-.15,1.17-1.17.88-2.35,1.61-3.82,1.91-.88.29-1.76.44-2.64.15h-.29c-.15.15-.29,0-.44,0-.59-.29-1.17-.59-1.76-.88-.29-.15-.59-.29-.73-.44s-.29-.15-.29-.44c.29-.15.44-.15.73-.15,1.32.15,2.5-.29,3.67-.88.73-.44,1.61-.88,2.35-1.47.29-.29.29-.44,0-.73-1.17-1.03-1.47-2.35-1.47-3.67,0-3.08.73-5.87,1.91-8.66.44-1.32,1.17-2.5,1.61-3.82.59-1.76.59-3.52-.29-5.14-.15-.44-.44-.73-.88-1.17-.15-.15-.29-.15-.15-.44.44-.29.73.15,1.03.29.59.59,1.47,1.03,2.35,1.61h0Z"/>
  <path class="cls-12" d="m180.77,12.68c1.17.44,2.2,1.03,3.23,1.61.29.15.59.29.88.59.88.73,1.32,1.47,1.47,2.5.15.59,0,1.17-.29,1.76-.73,2.05-1.91,3.82-3.38,5.28-1.32,1.47-2.79,2.94-4.26,4.11-.44.29-.59.73-.44,1.32.59,2.35,1.17,4.55,2.2,6.75.29.73.88,1.47,1.32,2.2-.73.29-1.47,0-2.05-.29-1.32-.59-2.05-1.61-2.64-2.94-.44-.88-.88-1.76-1.17-2.79-.44-1.17-.88-2.5-1.17-3.67-.15-.44-.44-.88-.15-1.47q0-.15-.15-.29c-.29-.29-.15-.73.15-.88.73-.44,1.32-1.17,2.05-1.61.29-.29.59-.73.88-1.03,1.03-.88,1.91-1.91,2.79-3.08,1.03-1.47,1.91-2.79,2.35-4.55.29-1.17,0-2.05-.88-2.94-.29.15-.73,0-.73-.59Zm-24.51,5.28c.59.29,1.17.59,1.91.88.29.15.59.29.88.29,1.03,0,1.91.59,2.79,1.32.15.15.29.29.29.73-.29.15-.44-.15-.73-.15-.15,0,0,.15,0,.15,1.03,1.91,1.03,3.82.29,5.87-.44,1.03-1.03,2.05-1.32,3.08-.44,1.17-1.03,2.5-1.17,3.82-.44.73-.88,1.47-1.32,2.05-.29.44-.44.73-.73,1.17-.29.29,0,.73,0,1.03-.15,1.17.15,2.2.88,3.08.44.59,1.03,1.03,1.76,1.47.29.15.59.15.73.59-1.47,1.17-2.79,2.2-4.55,2.64-.88.29-1.91.44-2.79.15-.73,0-1.32-.44-1.91-.73-.59-.44-1.32-.59-1.91-1.17,0-.29.15-.44.29-.44,2.5.29,4.55-.88,6.46-2.2.29-.29.29-.44,0-.73-1.61-1.32-1.61-3.23-1.47-4.99,0-1.03.44-1.91.44-2.94,0-.15.15-.29.15-.29.59.15,1.03.15,1.47-.29.15-.15.29-.15.15-.44-.44.29-.88.73-1.47.59-.15-.29-.15-.44,0-.73.15-.15.29-.29.15-.59h0c.73-.29.15-1.03.29-1.47s.29-1.03.59-1.47c.15-.29.15-.44.44-.73.15,0,.15-.15.15-.29,0-.44.15-.73.44-1.03.15-.15.29-.29.59-.15-.29-.29-.29-.59-.15-.88.29-.88.44-1.76.59-2.64.15-.59-.15-1.03-.15-1.61-.29-1.03-.73-1.91-1.47-2.64-.44,0-.59-.15-.59-.29h0Z"/>
  <path class="cls-6" d="m193.39,21.19c.15,1.17-.29,2.35-.88,3.38-1.03,1.91-2.35,3.67-3.96,5.14-1.03,1.17-2.2,2.2-3.38,3.08-.15.15-.29.29-.29.59.59,2.2,1.03,4.4,1.91,6.46.29.88.73,1.61,1.17,2.5-.59.29-.73.29-1.17-.15-.15-.15-.29-.29-.44-.15-.44.29-.59,0-.59-.44,0,0,0-.15-.15-.29-.44-.29-1.03-.44-1.32-.73-.15-.15-.29-.29-.44-.44-.15-.59-.44-1.03-.59-1.47-1.03-2.2-1.61-4.7-2.2-7.04,0-.29,0-.44.15-.59.15-.15.29-.29.29-.59,0-.15.15-.29.29-.29.29,0,.44-.15.59-.29,1.91-1.76,3.82-3.52,5.14-5.58.73-1.03,1.32-2.05,1.61-3.23.29-1.17.29-2.5-.59-3.38-.15-.15-.44-.29-.29-.73,1.03.44,2.2,1.03,3.08,1.61,1.17.59,1.76,1.47,2.05,2.64h0Z"/>
  <path class="cls-15" d="m188.4,16.79c.15.44.44.59.59.88.29.44.59,1.03.59,1.47.15,1.03-.15,2.05-.59,2.94-.73,1.47-1.76,2.94-2.79,4.11-1.17,1.32-2.35,2.35-3.52,3.52-.29.29-.44.44-1.03.29.15.44,0,.59-.29.88-.15.15-.15.29-.15.59.44,1.47.73,2.94,1.17,4.4.29,1.17.88,2.35,1.47,3.52.15.15.15.29.15.44-.29.29-.44,0-.73,0-.44-.15-.73-.44-1.32-.44-.29,0-.44-.15-.59-.29-.73-.73-1.03-1.47-1.47-2.35-.29-.88-.73-1.61-1.03-2.5-.29-.88-.44-1.76-.73-2.64-.15-.59-.29-1.32-.44-1.91-.15-.29,0-.59.29-.88.29-.29.59-.59,1.03-.88,1.03-.88,1.91-1.76,2.94-2.79,1.17-1.17,2.2-2.5,3.08-3.96.44-.73.88-1.61,1.17-2.35.29-1.17.15-2.2-.44-3.23-.15-.29-.59-.44-.73-.88.73.29,1.32.59,1.91,1.03.44.44,1.03.73,1.47,1.03h0Z"/>
  <path class="cls-16" d="m78.18,5.49c1.03.44,2.05.88,3.08,1.61,1.03.73,1.61,1.61,2.05,2.79.44.73.44,1.47.44,2.2,0,1.32-.44,2.64-1.03,3.96-.29.44-.44,1.03-.73,1.47-.15.29-.15.59.29.73s.88.44,1.32.59c.15,0,0,.15.15.15h0c-.15-.29,0-.44.29-.59,1.76-1.17,4.4-1.03,6.02.44.29.44.59.73.88,1.17,1.17,1.91,1.32,3.96.44,6.02-.73,1.76-1.61,3.38-2.2,5.28-.44,1.47-1.03,3.08-1.03,4.7v1.76c-.44,1.47.15,2.64,1.03,3.67l.15.15c.44.44.44.59,0,1.03-1.32,1.17-2.94,1.91-4.55,2.35-.88.29-1.91.15-2.94,0h-.15q-.15,0-.29-.15c-.44-.29-.88-.59-1.32-.88-.59-.44-1.03-1.03-1.47-1.76,0-.15-.15-.15-.15-.29-.29-.44-.29-.88-.59-1.32-.44.44-.73.73-1.03,1.17-1.47,1.61-3.23,2.64-5.43,2.94-.88,0-1.61.15-2.5-.15,0-.15.15-.29.29-.44.29-.15.59-.15.88-.15,2.64.15,4.7-.88,6.46-2.94.44-.44.73-1.03,1.32-1.47.29,0,.44.29.44.44.15.59.29,1.17.59,1.61s.44.73.88,1.03c.29.15.44.44.73.73,1.03,1.03,2.35,1.17,3.67,1.03,1.47-.15,2.79-.88,3.96-1.61.29-.15.29-.29.15-.59-1.17-1.47-1.32-3.23-1.17-4.99,0-.88.15-1.76.44-2.79,0-.29.15-.59.15-.88.73-2.35,1.47-4.7,2.64-6.9.73-1.47,1.03-3.08.44-4.7-.59-1.76-1.76-2.79-3.67-2.94-.59,0-1.17.15-1.76.29-.29.15-.29.29-.29.73.15.59.15,1.17,0,1.91,0,.15,0,.44-.29.44-.15,0-.29-.15-.29-.29-.59-1.17-1.61-2.05-2.94-2.5-.44-.44-1.03-.44-1.61-.59-1.76-.15-3.52.29-5.14,1.17,0-.44-.15-.29-.59-.29-.29-.29,0-.29.15-.44.88-.44,1.76-1.03,2.79-1.17-.29,0-.29-.15-.29-.29s.15-.29.29-.44c.88-1.61,1.76-3.23,2.35-4.99.59-1.76.59-3.52-.29-5.28-.15-.44-.59-.73-.73-1.17-.15-.29-.44-.44-.29-.59h0Z"/>
  <path class="cls-11" d="m37.52,18.84c-.59,0-1.03.29-1.47.44-1.17.44-2.35.73-3.52,1.03-.44.15-.73.29-.88.73-.59,1.47-1.03,3.08-1.61,4.55-.73,2.05-1.61,4.11-2.5,6.16-1.03,2.35-2.2,4.7-3.52,7.04-.59,1.17-1.32,2.2-1.91,3.23q-.44.73.29,1.03c.88.29,1.61.73,2.5,1.17.15.15.29.15.59.15,1.17.59,2.35,1.03,3.67,1.47h.15q.15,0,.29.15h.15q.15,0,.29.15h.15q.15,0,.15.15h1.32c.59.15,1.03.29,1.61.29h1.47c3.08.29,6.02-.15,8.81-1.61q1.17-.59,1.47.73c.44,2.5.29,4.84-1.03,7.04-.59,1.17-1.47,2.05-2.5,2.94q-.15.88-.29.88c-2.94,1.91-6.02,2.64-9.54,2.05-.29,0-.29.15-.29.29l-4.4-2.2c-.15,0-.29-.15-.29-.15-.29-.15-.44-.15-.73.15-.15,0-.29,0-.29-.15,0-.44-.44-.59-.73-.73-.59-.44-1.32-.73-1.76-1.32-.73-.73-1.61-1.32-2.35-1.91-.29-.29-.59-.44-.88-.59-.73-.59-1.47-1.17-2.05-1.76q-.73-.59-1.32,0c-1.76,1.76-3.96,2.94-6.46,3.38-.59.15-1.17.15-1.91.15-.29,0-.73,0-.88.29-.15.15-.29.15-.29,0-.44-.59-1.17-.44-1.76-.73-2.79-1.17-4.55-3.23-4.99-6.16-.29-.88-.29-1.47-.15-2.05.44-.15.29.29.29.44,0,.73.15,1.61.44,2.35.29.88.73,1.76,1.61,2.35.73.44,1.32,1.17,2.05,1.47,1.61.88,3.52,1.17,5.43.73,2.64-.44,4.84-1.61,6.6-3.67.59-.59.73-.59,1.32-.15,1.32.88,2.35,2.05,3.67,3.08,2.35,1.91,4.84,3.67,7.63,4.99,3.38,1.61,6.9,1.47,10.27,0,2.35-1.03,3.96-2.79,4.84-5.28.44-1.32.44-2.79.29-4.26,0-.29-.15-.44-.44-.44-.15,0-.15-.15-.29-.29,0-.29-.15-.15-.29-.15-1.76.88-3.52,1.47-5.43,1.61h-3.52c-.15,0-.29-.15-.59-.15h-1.17c-1.32-.29-2.5-.59-3.67-1.03-.15,0-.29-.15-.59,0-.44,0-.88-.29-1.32-.44-1.61-.73-3.38-1.47-4.99-2.35-.29-.44-.88-.29-1.03-.73,0-.29,0-.44.15-.59,3.52-5.43,6.16-11.15,8.37-17.17.59-1.61,1.17-3.08,1.61-4.7.15-.59.59-.88,1.17-1.03,2.05-.44,4.11-1.03,5.87-2.05,1.47-.73,2.64-1.61,3.52-2.94,1.76-2.5.88-6.9-2.5-8.22-.15,0-.29-.15-.44-.29-.15-.15-.29-.29-.59-.29-1.61-.44-3.08-.44-4.55.29-.29.15-.44.29-.73,0,1.32-1.03,2.79-1.47,4.4-1.32,1.32,0,2.5.59,3.67,1.17,0,.15.15.29.15.44.88.88,1.61,1.91,1.91,3.08.15.44.15.88.29,1.32q.15.15,0,.29c0,1.61-.59,3.08-1.47,4.26-.59.73-1.17,1.32-1.91,1.76s-1.32.88-2.05,1.17c-.59.15-.59.29-.59.44h0Z"/>
  <path class="cls-15" d="m78.18,5.34c.15.44.44.59.59.88.88,1.03,1.17,2.35,1.32,3.67,0,1.61-.44,3.08-1.17,4.4-.44,1.03-1.03,1.91-1.47,2.94-.15.29-.29.59-.44.88-.15.15,0,.29.15.29-.29.29-.59.29-.88.44-.73.29-1.47.59-2.05,1.17-.15.15-.29.15-.44.29h-.15c-.15,0-.15.15-.29.15,0,0-.15,0-.15.15-.15,0-.29.15-.29.29-.88.44-1.61,1.17-2.5,1.91-.15.15-.29.44-.59.44,0-.15,0-.29.15-.44.88-1.61,1.76-3.38,2.64-4.99.88-1.61,1.76-3.08,2.5-4.7.44-.88.88-1.76,1.17-2.79.15-.59.29-1.17.29-1.76,0-1.61-.44-3.23-1.61-4.4-.15-.15-.29-.15-.29-.44.73.15,1.32.59,1.91.88.44.15,1.03.44,1.61.73h0Z"/>
  <path class="cls-12" d="m134.53,4.31c1.32.59,2.64,1.32,3.96,2.05,1.17.88,1.91,1.91,2.35,3.23.88,2.79.15,5.28-1.91,7.34-1.17,1.17-2.79,1.76-4.55,2.2-.29,0-.59.15-.88.15-.15,0-.29.15-.59,0-.15-.15-.44-.15-.59-.29v-.15h-.15c-.29,0-.59-.15-.88-.29-.59-.29-1.03-.59-1.61-.88-.29-.15-.29-.29-.15-.59.73-.29,1.47-.44,2.2-.73,1.61-.59,3.08-1.47,4.11-2.94,1.91-2.79,1.61-6.46-1.03-8.81,0,.29-.29.15-.29-.29h0Z"/>
  <path class="cls-16" d="m181.35,39.1c.15,0,.29.15.59.15,0,.59-.59.88-.88,1.17-.88.73-1.76,1.47-2.79,2.2-1.47,1.03-3.08,1.91-4.99,2.05-.59,0-1.17,0-1.76-.29h-.29.15c.44.15.88.29,1.17.59.15.15.29.15.29.44-.15.44-.29.88-.44,1.32-.15.73-.29,1.32-.15,2.05v.73c-1.61-.44-3.08-1.32-4.55-2.05h0c.15-.15.59.15.59-.15.15-.29,0-.44,0-.73,0-1.03.15-2.05.73-2.94.29-.44-.29-.44-.44-.73l-.15-.15c-.73-1.03-1.17-2.2-1.61-3.38-.44-1.47-.88-2.94-1.17-4.4-.29.29-.44.44-.73.73-1.17,1.32-2.35,2.79-2.94,4.55-.44,1.03-.59,2.05-.44,3.08.15.73-.15.88-.88.73-.15,0-.29-.15-.59-.29-.44-.29-.88-.44-1.32-.73-1.47-1.03-2.35-2.2-2.35-4.11,0,0,0-.15.15-.29.29,0,.29.29.29.44.15.88.44,1.61,1.17,2.2.73.44,1.17,1.17,1.91,1.47.15,0,.29.15.44.15.29.15.29,0,.29-.29.29-3.23,2.05-5.58,4.11-7.93.29-.29.44-.73,1.03-.88.29.59.44,1.17.59,1.76.44,1.47.73,2.94,1.32,4.26.29.73.73,1.32,1.03,1.91.15.15.29.29.59.44.29.15.59.44.88.73.88.88,1.91,1.17,3.08,1.03,2.05-.15,3.52-1.17,5.14-2.35.59-.44,1.17-.88,1.76-1.47v-.15c-2.05-.59-3.23-2.05-4.11-3.82-1.03-2.2-1.76-4.4-2.35-6.75-.15-.59-.29-1.17-.44-1.61-.15-.29,0-.59.29-.88.44-.29.73-.73,1.17-1.03.15-.15.29-.29.44-.29,1.32-1.32,2.64-2.5,3.82-3.96,1.03-1.17,1.91-2.5,2.5-3.96.73-1.76.29-2.94-1.17-3.96-.59-.44-1.32-.73-2.05-1.17-.73-.59-1.61-.73-2.5-.88v-.73s0-.15.15-.15c1.76.29,3.38.88,4.84,1.76,0,.15.15.29.15.29.15.15.29.29.44.44,1.03,1.03,1.32,2.2.88,3.52-.29,1.03-.73,1.91-1.32,2.79-.73,1.17-1.61,2.35-2.64,3.38-.44.44-.88.88-1.32,1.47-.29.29-.59.44-.59.88,0,.15-.15.15-.15.15-.44,0-.73.44-.88.73,0,.15,0,.29-.29.29s-.44.15-.59.29l-.15.15q-.44.29,0,.73c.15.15.15.29,0,.44s-.15.44.15.44q.15,0,.15.15t-.15.15c-.15,0-.15.15-.15.29.29,1.17.59,2.35,1.03,3.38.15.44.29.73.44,1.17.44,1.32,1.03,2.5,1.76,3.52.44.59,1.03,1.17,1.76,1.47.73.44,1.47.44,2.05.44h0Z"/>
  <path class="cls-9" d="m134.53,4.17c0,.15.15.44.29.59,1.32,1.17,2.2,2.5,2.5,4.26.29,1.32,0,2.35-.44,3.52-.88,2.2-2.64,3.52-4.84,4.26-.73.29-1.47.44-2.2.59-.15.15-.15.29-.44.29.29-.88.29-1.76.88-2.64.15-.29.15-.73.15-1.03-.15-.73-.29-1.61-1.17-2.05-.59-.44-1.32-.29-1.91.15-.44.44-.88,1.03-1.17,1.61-.59,1.32-.73,2.79-.73,4.26,0,.73.29,1.32.44,1.91.44,1.32,1.03,2.64,1.76,3.82.59,1.32,1.32,2.5,1.76,3.82.29.88.59,1.76.73,2.79,0,.44,0,.88.15,1.32,0,1.32-.29,2.64-.73,3.96-.59,1.76-1.47,3.52-2.79,4.99-.59.73-1.32,1.47-2.2,1.91-1.03.73-2.05,1.47-3.23,2.05-1.61.73-3.23,1.17-4.84,1.32-.59,0-1.32,0-1.91.15-.73.15-1.47-.15-2.2-.15h-.15c-.44-.15-.88.29-1.32-.15-.29-.29-.88-.29-1.17-.44h-.15c-2.35-1.03-4.4-2.5-5.58-4.84-1.03-2.05-1.17-4.26-.88-6.46v-.29c.44,0,.29.29.29.59-.15.73-.15,1.61,0,2.35.15,1.47.59,2.94,1.47,4.11.15.29.44.59.73.73s.59.44.88.73c1.61,1.61,3.67,2.5,5.87,2.79,3.52.44,6.75,0,9.83-1.76,3.82-2.2,6.31-5.28,7.04-9.69.44-2.5-.15-4.84-1.17-7.04-.73-1.76-1.76-3.38-2.5-5.14-.44-1.17-.88-2.2-1.03-3.38-.15-2.05.29-3.96,1.32-5.72.44-.88,1.32-1.32,2.35-1.47.73,0,1.32.15,1.76.73,1.32,1.32,1.47,2.94.73,4.7l-.15.15h0c.88-.29,1.76-.59,2.64-1.03,1.91-1.17,2.94-2.94,3.08-4.99.15-1.47-.44-2.79-1.47-3.96-.88-1.03-1.91-1.76-3.08-2.2-.15,0-.29-.15-.44-.29-.59-.59-1.32-.59-2.05-.59-2.05-.15-4.26,0-6.16.88-.59.29-1.17.73-1.91,1.03-.29.15-.44.29-.73.15,1.32-1.17,2.94-1.91,4.7-2.35,2.05-.44,4.26-.59,6.31,0,1.47.29,2.2.73,3.08,1.17h0Z"/>
  <path class="cls-15" d="m130.57,42.62c0-.15.15-.29.15-.29.44-.44.73-1.03,1.17-1.47.29,0,.29.15.29.29.29.73.88,1.32,1.17,2.05.15.15.29.29.44.29.29.15.59.29.59.73-1.32,1.47-2.94,2.79-4.7,3.67-2.05,1.17-4.4,1.76-6.75,2.05-1.91.15-3.82,0-5.58-.59-1.17-.44-2.2-1.03-3.23-1.61,0,0-.15,0-.15-.15s.15-.15.29-.15c1.61.44,3.38.59,4.99.44,1.03,0,2.05-.29,3.23-.44,1.61-.44,3.08-1.03,4.4-1.91.88-.44,1.61-1.03,2.35-1.76.29-.29.73-.73,1.03-1.03,0,0,.15,0,.29-.15h0Z"/>
  <path class="cls-20" d="m175.78,11.65c1.03-.15,1.76.29,2.64.73-.29.29-.59,0-1.03,0-.29-.15-.59,0-.59.44-.44,2.64-1.76,4.84-3.23,7.04-.15.15-.15.29-.29.44s-.15.29-.29.44c-.29.29-.44.59-.73.88-.29.44-.59.44-.73-.15-.29-.88-.73-1.61-1.03-2.5-.88-1.76-2.2-2.94-4.11-3.23-1.76-.29-3.38.15-4.7,1.17-.59.44-1.17,1.03-1.61,1.61-.15.15-.15.29.15.44,2.05.59,3.08,2.2,3.96,3.96.73,1.76,1.17,3.52,1.61,5.28.15.44,0,.88-.29,1.17-1.47,1.32-2.79,2.79-4.26,4.11-.44.44-.88.88-1.32,1.47-.44.44-.73.73-.88,1.32-.59.88-.88,1.76-1.03,2.64-.15.59.15,1.17.29,1.61.15.15.29.44.15.73q-.29,0-.44-.29c-.59-.73-.88-1.47-.88-2.35v-.29c0-.29,0-.44-.15-.73s0-.59.29-.73c.15,0,.15-.15.15-.29.44-1.03,1.03-1.76,1.76-2.64.29-.44.44-.73.88-1.03,1.47-1.47,2.94-2.79,4.4-4.11.29-.29.44-.59.29-1.03-.44-1.91-.88-3.67-1.76-5.43-.15-.29-.44-.73-.59-1.03-.59-1.03-1.32-1.47-2.35-1.76-.44-.15-.73-.15-1.17-.15q-.29,0-.29-.29c.29-.29.29-.59.59-.88,1.32-1.91,2.94-3.23,5.28-3.52,1.47-.29,2.94-.15,4.26.59l.88.44c1.17,1.03,2.05,2.35,2.64,3.82,0,.15.15.15.15.29.29-.73,1.03-1.17,1.32-1.76.29-.44.44-.88.73-1.32.44-.88.88-1.76,1.17-2.64.15,0,.15-.15.15-.15,0-.29.15-.44.15-.59q.15-.15.15-.29v-.15c.15-.15.15-.29.15-.44-.44-.59-.44-.73-.44-.88h0Z"/>
  <path class="cls-6" d="m117.36,49.37c.15-.15.29-.15.44,0,1.17.29,2.5.59,3.82.59,1.61,0,3.08-.15,4.7-.59,2.2-.59,4.26-1.61,6.02-3.08.73-.59,1.32-1.17,1.91-1.76q.15-.15.29-.15h.29c.15,0,.15.15.29.15l.29.15h.15c.15,0,.29.15.29.15.59.29,1.17.59,1.61.88.15.15.29.15.44.44-1.03,1.32-2.35,2.35-3.67,3.23-2.2,1.47-4.7,2.2-7.34,2.5-2.2.15-4.4,0-6.46-.73-1.17-.73-2.2-1.17-3.08-1.76h0Z"/>
  <path class="cls-21" d="m32.83,6.37c.15.15.44,0,.59,0,.73-.59,1.76-.73,2.64-.73s1.76.15,2.5.44c.15,0,.15.15.15.29-.29.29-.59.15-1.03,0-1.32-.15-2.5,0-3.67.73-1.61,1.03-2.94,2.35-4.11,3.82-1.32,1.76-2.35,3.67-3.38,5.58-.44.73-.88,1.03-1.61,1.03-3.52.29-7.04.59-10.42,1.47-2.2.59-4.26,1.32-6.16,2.64-1.91,1.32-3.38,2.94-4.26,5.14-.88,2.2-.44,4.11.73,6.16.15.29.44.44.29.88-.29.15-.59-.15-.73-.29-1.61-2.05-2.35-4.26-1.47-6.75,0-.15.15-.29,0-.44.73-2.05,2.05-3.82,3.82-5.14,2.05-1.47,4.4-2.5,6.75-3.23,2.05-.44,3.96-.88,6.02-1.03,1.76-.15,3.52-.29,5.14-.44.29,0,.29-.15.44-.29.59-1.17,1.32-2.2,1.91-3.38v-.15c0-.15.15-.29.29-.44h0c0-.15.15-.15.15-.29.15-.15.29-.15.29-.29h0c.15,0,.15-.15.15-.29h0c.15,0,.15-.15.29-.29h0q.15,0,.15-.15c.15-.15.15-.29.29-.59.15,0,.15-.15.15-.15.15-.15.15-.29.29-.44,0,0,.15,0,.15-.15.44-.59,1.03-1.17,1.61-1.61.15,0,.29,0,.44-.29,0-.15.15-.15.15-.15,1.03-.73,1.17-.88,1.47-1.17h0Z"/>
  <path class="cls-15" d="m133.51,19.43c1.17-.29,2.35-.59,3.38-1.17,2.2-1.17,3.52-2.79,4.11-5.28.44-1.91-.15-3.52-1.17-5.14-.29-.59-.88-.88-1.17-1.47.73.29,1.47.73,2.2,1.03.44.15.73.44,1.17.59.59.44,1.03.88,1.47,1.47,2.2,2.79,1.76,6.31-.59,8.95-.29.15-.44,0-.73-.15-1.32-.59-2.64-.44-3.96.15-.44.15-.59.44-.29.88.29.59.29,1.17.15,1.76,0,.15,0,.29-.29.44-.44-.15-.88-.29-1.17-.59-.59-.29-1.17-.44-1.76-.88-.15-.15-.44-.29-.59-.29-.44.15-.73,0-.73-.29h0Z"/>
  <path class="cls-19" d="m59.24,18.11c0-.15.15-.29.15-.29q.15,0,.15-.15c.15-.29.15-.44.29-.73q.15,0,.15-.15c0-.15.15-.29.29-.59.15,0,.15-.15.15-.15,0-.15.15-.29.15-.59.15,0,.15-.15.15-.15.29-.59.44-1.32.73-1.91.15,0,.15-.15.15-.15,0-.15,0-.29.15-.29s.15,0,.15-.15c0-.29.15-.44.29-.59.29-.15.29-.29.29-.59,0-.15.15-.44.15-.59.15-.44.44-.73.44-1.17v-.29c.29-.29.29-.44.29-.88v-.29c.29-.59.59-1.17.59-1.76v-.29c.44-.44.44-1.03.44-1.61.15-1.03.29-2.2.15-3.38,0-.29.15-.59.44-.59,1.03-.29,2.05-.15,3.08.15.15,0,.29.15.29.44-.15.29-.29.15-.59.15-.59,0-1.17-.15-1.76,0-.29,0-.44.15-.44.44.15,2.05-.29,3.96-.88,6.02-1.17,3.82-2.64,7.49-4.4,11.15-1.61,3.23-3.23,6.46-4.84,9.69-.59,1.03-1.17,2.2-1.61,3.38,0,.15-.15.29-.15.44-.73,1.61-1.32,3.23-1.76,4.99-.44,2.05-.44,4.11.59,5.87,0,.15.15.15,0,.29-.44.29-.59-.15-.88-.29-.59-.88-.88-1.91-1.17-2.94-.15-.73,0-1.32-.15-2.05v-.29c.15-.15.15-.29.15-.59v-.29c.15-.29.15-.44.29-.73v-.15c0-.15.15-.15.15-.29v-.15c0-.15.15-.15,0-.29,0-.15,0-.29.15-.44.44-.59.59-1.32.73-1.91,0-.15,0-.29.15-.44,0-.15.15-.15.15-.29-.15-.29-.15-.73.29-.88.15-.15.29-.15.29-.44,0-.15,0-.29.15-.44s.15-.15.15-.29c.15-.44.29-.73.59-1.17s.59-.88.73-1.32v-.15c.15-.15.29-.29.29-.73q0-.15.15-.29c.15-.15.29-.15.29-.44s.15-.29.15-.59c.29-.44.44-1.03.73-1.47.15-.29.44-.44.44-.88v-.29c.15,0,.15-.15.15-.29.15-.29.29-.73.44-.88.29-.15.44-.44.44-.73,0-.44.29-.73.44-1.03.29-.15.29-.29.29-.59s.15-.59.44-.73c.15-.15.29-.29.29-.59.15-.15.29-.29.44-.29h0Z"/>
  <path class="cls-21" d="m2.44,50.55c-.44,0-.59-.29-.73-.59-.88-1.03-1.32-2.2-1.47-3.38v-1.03c0-.15,0-.29-.15-.44v-.29c.15,0,.15-.15,0-.15v-.29c.15,0,.15-.15.15-.15.44-1.61,1.32-2.94,2.64-4.11,2.05-1.76,4.4-2.5,7.04-2.35h.59c.29-.15.44,0,.73,0,.59.29,1.32.44,1.91.59.44.15.73,0,1.03-.44.59-1.32,1.47-2.5,2.05-3.96v-.15c1.61-2.94,2.94-5.87,4.4-8.81.44-.88.73-1.61,1.32-2.5.15-.15.29-.29.29-.59.29-.29.59-.29,1.03-.44.29,0,.44.15.29.44s-.15.59-.29.88c-2.5,4.99-4.84,9.98-7.49,14.82-.29.59-.59,1.17-1.03,1.76-.29.59-.59.59-1.17.29-1.17-.44-2.5-.88-3.82-.88-1.03,0-2.2.15-3.23.44-2.79,1.03-4.84,2.94-5.43,5.87-.29,1.61.15,3.08.88,4.4.29.44.44.59.44,1.03h0Z"/>
  <path class="cls-14" d="m43.39,19.73c0-.29.29-.29.29-.59,0,0,0-.15.15-.15.59,0,.73-.44,1.03-.73.73-.88,1.47-1.91,1.76-3.23.15-.59,0-1.03.15-1.61,0-1.32-.44-2.5-1.03-3.67-.15-.29-.44-.44-.59-.73-.15-.15-.29-.29-.44-.59.88.29,1.61.88,2.5,1.32.29.15.73.29,1.03.59,1.17,1.03,1.91,2.35,2.2,3.96v.15c.29.29-.44.44-.15.88.29.29.15.59.15,1.03,0,.29,0,.59-.29.73,0,0-.15,0-.15.15,0,1.47-.88,2.2-1.76,3.23-.29,0-.44,0-.59-.15-1.17-.59-2.35-.59-3.67-.44-.15-.15-.29,0-.59-.15h0Z"/>
  <path class="cls-17" d="m48.38,20.31c0-.29.15-.29.29-.44.59-.59,1.03-1.32,1.32-2.05.15-.15.29-.44-.15-.44-.15,0-.15-.29,0-.29.44,0,.44-.29.44-.59v-.88c-.15-.15-.15,0-.29,0h-.29v-.29c.59-.29.44-.73.29-1.17-.29-1.17-.73-2.2-1.61-3.08-.15-.15-.29-.15-.29-.44,1.03.44,2.05.88,2.94,1.61,1.03.73,1.76,1.76,2.35,2.94l.29.29c.73,2.35.29,4.7-1.61,6.75,0,0-.15.15-.29.15-.44.15-.73-.15-1.03-.29-.29-.15-.44-.29-.73-.29h-.29c-.29-.29-.44-.44-.73-.59-.15,0-.15-.15-.29-.15h-.15l-.15-.15c.15-.44,0-.44,0-.59h0Z"/>
  <path class="cls-6" d="m142.75,18.55c0-.15.15-.29.15-.44.73-.88,1.17-1.91,1.47-2.94.29-1.32.15-2.64-.29-3.96-.44-1.03-1.17-1.91-2.05-2.79,0,0-.15-.15-.15-.29,1.17.44,2.2,1.03,3.23,1.76,1.17.73,1.91,1.76,2.64,3.08.44.44.44,1.03.59,1.61.29,2.2-.44,3.96-1.91,5.58-.29.15-.59,0-.73-.15-.73-.29-1.32-.73-2.05-1.03h-.15s-.15,0-.15-.15h-.15s-.15,0-.15-.15h-.15s-.15,0-.15-.15q.15.15,0,0h0Z"/>
  <path class="cls-12" d="m4.94,53.04c0-.15.15-.15.29,0,.44.15.73.29,1.17.29.15,0,.15.15.29.29.15.29.15.44.44,0,.15-.15.29-.15.44-.15h1.76c1.03-.15,1.91-.29,2.94-.73,1.61-.59,3.08-1.61,4.26-2.79q.15-.15.29-.29c.15-.15.29-.15.59,0,.29.29.73.44,1.03.73.59.44,1.03,1.03,1.61,1.47.15.29,0,.44-.15.59-2.5,2.2-5.43,3.23-8.81,3.23-.59,0-1.03-.15-1.61-.29-1.47-.59-2.79-1.32-4.11-2.05q-.29-.15-.44-.29h0Z"/>
  <path class="cls-9" d="m68.2,1.23c0-.15,0-.29-.29-.29-.73-.29-1.61-.44-2.5-.29-.29,0-.44,0-.73.15-.15,0-.29.15-.29.29.15.73,0,1.47,0,2.35-.15.88-.29,1.61-.44,2.5q0,.15-.29.29c.15-.73.29-1.47.44-2.35s.15-1.91,0-2.79v-.29q0-.29.29-.44c1.76-.59,3.52-.44,5.14.44l.88.44c0,.29.15.44.29.59,1.03.88,1.47,2.2,1.76,3.52.15,1.03,0,2.05-.29,3.08-.15.73-.44,1.47-.88,2.05-.15.29-.29.59-.29.88.15.44-.44.15-.44.59-.44.73-.73,1.47-1.17,2.2-.59.88-1.03,1.91-1.61,2.94-.15.29-.29.44-.29.73q0,.15-.15.29s-.15,0-.15.15c.15.44-.15.44-.29.73v.15c-.15.73-.59,1.17-.88,1.76-.15,0-.15.15-.29.29-.88,1.76-1.76,3.52-2.5,5.43-1.03,2.2-1.76,4.55-2.2,6.9-.15.59-.15,1.03-.29,1.61,0,.29.15.29.29.44.15.15.15.29-.15.29-.15,0-.15.15-.15.29-.15,1.03,0,2.05,0,3.23,0,.29,0,.44.29.44.15,0,.15.15,0,.29-.15.15-.15.44,0,.59.29.88,1.03,1.61,1.61,2.2.15,0,.15.15.29.15.15.15.15.29,0,.44-1.03.73-2.05,1.47-3.23,1.91-1.47.73-2.94,1.03-4.7.88-.44,0-.73-.15-1.32-.29h-.44c-1.17-.73-2.2-1.61-2.79-2.94-.29-.59-.44-1.17-.59-1.76v-.29c0-.73-.15-1.47-.15-2.05,0-.29,0-.44.29-.59.15.15.15.29.15.59,0,1.03.15,2.05.44,3.08.15.44.44.88.73,1.32.15.15.29.44.59.44s.29.15.44.29c1.03,1.32,2.5,1.76,4.11,1.61,1.91-.15,3.52-1.03,5.14-1.91.29-.15.29-.29,0-.59-1.47-1.47-1.76-3.38-1.76-5.28,0-2.5.59-4.99,1.32-7.34,1.03-3.08,2.35-5.87,3.67-8.81.29-.44.44-1.03.73-1.47s.44-.88.73-1.32c1.17-2.64,2.64-4.99,3.96-7.49.59-1.17,1.17-2.2,1.47-3.52.44-2.2-.44-4.55-2.35-5.72-.15-.59-.73-.59-1.17-1.03h0Z"/>
  <path class="cls-21" d="m121.03,5.34c.29.15.44,0,.59-.15,1.47-1.03,3.08-1.61,4.84-1.91,1.17-.15,2.35-.15,3.38,0,.59,0,1.17.15,1.76.44.15,0,.29.15.29.29-.29.29-.44.15-.73,0-3.23-.59-6.16,0-8.81,1.91-3.23,2.35-4.99,5.72-5.58,9.69-.29,1.91,0,3.67.59,5.43,1.03,2.94.15,5.58-1.76,7.93-1.03,1.17-2.2,1.91-3.67,2.2-.73.15-1.61.15-2.35-.15-.15-.15-.44-.15-.44-.44.15-.15.29-.15.44-.15,1.76.29,3.23-.44,4.55-1.76.29-.29.44-.44.73-.73.15,0,.29-.15.29-.29h0c.15,0,.15-.15.29-.29h0c.29,0,.15-.29.29-.29.15-.29.29-.59.44-.88.15,0,.15-.15.15-.15q0-.15.15-.29l.15-.15v-.29c.29-.15.29-.29.15-.59v-.15c.44-.73.15-1.47.15-2.2,0-.29-.15-.73-.29-1.03-.73-1.91-1.03-3.96-.73-6.16v-.44c.15-.15.15-.29.15-.44v-.15q.15-.15.15-.29v-.29s0-.15.15-.15v-.29c.29-.29.29-.59.29-.88s.15-.44.15-.59c.15,0,.15-.15.15-.15,0-.15.15-.29.15-.59.15,0,.29-.15.29-.44q0-.15.15-.15c.29-.15.29-.44.44-.73q0-.15.15-.15c.15,0,.15-.15.29-.29.15-.29.29-.44.44-.59.15,0,.15-.15.29-.29.15-.29.29-.44.59-.59.15,0,.29-.15.29-.29.15-.29.44-.59.73-.73-.15-.73,0-1.03.29-1.32h0Z"/>
  <path class="cls-10" d="m135.12,44.53c-.15,0-.29,0-.44-.15,0-.15-.15-.15-.15-.15h0c-.15-.29-.44-.44-.73-.73-.15-.15-.29-.15-.44-.29-.44-.73-1.03-1.47-1.32-2.5-.15-.29-.15-.59-.29-1.03,0,0-.15-.15,0-.29-.15-.73,0-1.32,0-2.05.44-.15.29.29.29.44,0,.73.15,1.47.44,2.2.15.59.44,1.03.88,1.47.15.15.15.29.44.29.59.29.88.88,1.32,1.17,1.32,1.03,2.94,1.32,4.55.73,1.47-.59,2.64-1.47,3.67-2.64.73-.73,1.47-1.61,2.05-2.35.15-.15.29-.29.44-.29s.29.29.29.44c.29,1.32.73,2.5,1.76,3.38,1.17.88,2.35,1.03,3.82.88,1.32-.15,2.5-.88,3.67-1.61.29-.15.29-.29.15-.59-1.32-1.61-1.32-3.67-1.17-5.58.44-3.38,1.47-6.6,3.08-9.69.59-1.17.88-2.35.73-3.67v-.44c-.29-1.61-1.03-2.79-2.5-3.38-.15,0-.29-.15-.44-.29-.59-.44-1.17-.59-1.76-.59-.44,0-1.03.15-1.47.29-.29.15-.44.29-.29.59.15.29.15.59.15.88s0,.44-.44.29c-.29-.59-.29-1.03-.44-1.61-.15-.15,0-.44.15-.44,1.03-.59,2.05-1.03,3.38-.88.15,0,.29,0,.44.15.73.15,1.32.44,2.05.88,0,.15.15.29.15.29,1.03.88,1.47,1.91,1.76,3.08,0,.15.15.29.29.29s.15,0,.15.15,0,.15-.15.15c-.29.15-.29.29-.29.44,0,1.03-.15,2.05-.59,3.08-.15.15-.15.29.15.44.15,0,.29.15.29.29-.29.15-.44.15-.73-.15-.15.29-.29.59-.44.73-.15.15-.15.29,0,.44s0,.29-.15.29c-.29,0-.44.29-.44.59-.15.59-.44,1.17-.59,1.76-.15.15-.15.29.15.44.15.15.15.29,0,.44s-.29.15-.44.29q.29.29,0,.59c-.29.15-.29.44-.29.73-.15.15-.15.29-.15.44-.15.44.15.73-.15,1.17-.15.29-.15.73-.15,1.17-.15.59-.15,1.17-.15,1.76,0,.73.15,1.61.44,2.35.29.59.73,1.03,1.17,1.47.29.29.29.59,0,.88-1.17.88-2.5,1.76-3.96,2.05-.88.29-1.76.44-2.64.29-.15,0-.29,0-.29.29-.44,0-.88,0-1.17-.44-.15-.15-.29-.29-.59-.44-1.32-.73-1.91-1.76-2.5-2.94-.15,0-.29.15-.29.29-1.17,1.32-2.5,2.64-4.11,3.52-1.17.73-2.5,1.03-3.96.73-.29,0-.44-.15-.73-.29-.15,0-.15-.15-.29-.15h0q-1.03.59-1.17.59h0Z"/>
  <path class="cls-15" d="m9.2,55.24c.15-.15.29-.15.44,0,.73.15,1.61.29,2.35.29,1.17,0,2.5-.29,3.67-.73s2.2-1.03,3.08-1.76c.29-.29.59-.59.88-.73.15,0,.15-.15.15-.44,1.03.73,2.05,1.61,3.08,2.35.15,0,.15.15.15.29-2.79,2.35-6.02,3.52-9.69,2.94-.29,0-.44-.15-.73-.15-1.17-.73-2.2-1.47-3.38-2.05h0Z"/>
  <path class="cls-17" d="m12.57,57c.29-.29.59,0,.88,0,.59,0,1.17.15,1.76.15h1.61c.88-.15,1.91-.44,2.79-.73,1.17-.44,2.05-1.17,3.08-1.76q.15-.15.44-.15c.44.44.88.73,1.32,1.03.29.29.73.44,1.17.73.15,0,.15.15.15.29-.15.29.15.29.15.44-1.32,1.17-2.94,1.76-4.55,2.2-1.76.44-3.52.44-5.43-.15-1.32-.88-2.35-1.47-3.38-2.05h0Z"/>
  <path class="cls-9" d="m22.26,22.22c.29.29.15.29-.15.44-.59.29-1.17.44-1.76.73-.44.29-1.03.29-1.32.88,0,.15-.15.15-.29.15-.44-.15-.73.15-1.03.29-.59.44-1.17,1.03-1.61,1.47-.29.29-.15.88-.44,1.03-.44.29-.44.59-.59.88-.59,1.76-.15,3.38.88,4.99.15.29.59.44.44,1.03h0c-1.17,1.03-2.35,1.91-3.82,2.35s-3.08.44-4.7-.15c-3.08-1.32-4.84-3.52-5.28-6.75-.15-1.17,0-2.35.44-3.52.29,0,.15.15.15.29-.15.59-.29,1.32-.29,1.91,0,1.03.15,1.91.44,2.79.29.73.73,1.47,1.17,2.05.15.15.29.44.59.44s.44.29.59.29c2.64,2.64,6.46,2.79,9.25.29.29-.29.29-.44.15-.73-.73-1.17-1.17-2.35-1.17-3.67,0-2.2,1.03-4.11,2.64-5.43,1.47-1.17,3.23-1.76,4.99-2.35.44.29.59.15.73.29h0Z"/>
  <path class="cls-21" d="m105.77,41.74c-.44,0-.59-.29-.88-.73-.73-1.17-1.32-2.5-1.47-3.82-.15-.73-.15-1.32-.15-2.05,0-.29,0-.59.15-.88,0-.15.15-.44-.15-.59v-.15q.15-.15.15-.29v-.29c.15-.15.15-.29.15-.44v-.29c.15,0,.15-.15.15-.15,0-.29.15-.44.29-.73.29-.15.29-.59.44-.88h0c.15,0,.15-.15.15-.29.44-1.32,1.17-2.35,1.91-3.52.59.15.44.59.59,1.03.15.29,0,.44-.15.73-.73,1.32-1.47,2.79-2.05,4.4-.29,1.03-.59,2.05-.59,2.94-.15,1.91.29,3.67,1.17,5.28.15.15.29.44.29.73h0Z"/>
  <path class="cls-12" d="m107.82,25.3q.15-.15.29-.29c.15.15,0,.29.15.44.15,0,.15-.29.29-.29,0,.15,0,.29.15.44.15,0,.15-.15.29-.15.15.15,0,.29.15.44.15,0,.15-.15.29-.29.15.15.15.29.15.44.15,0,.15-.15.29-.29.15.15,0,.29.15.44.15,0,.15-.15.29-.29.15.15,0,.29.15.44.15,0,.15-.15.29-.29.15.15.15.29.15.44.15,0,.15-.15.29-.29.15,0,.15.29.15.44.29.29.29.73.29,1.03.15.44.15,1.03.44,1.47.15.29,0,.29-.15.44-1.17.44-2.64,0-3.38-1.03s-.88-2.2-.88-3.23c-.15.29-.15.15.15,0h0ZM7.88,36.46q.15-.15.29,0c.73.15,1.47.29,2.2.29,1.32,0,2.5-.29,3.67-1.03.59-.29,1.17-.73,1.76-1.17.15-.15.29-.29.59-.29-.15.73-.59,1.32-.88,2.05-.29.59-.73,1.32-1.03,1.91s-.73.73-1.47.59c-.15,0-.29-.15-.59-.15-.59-.15-1.17-.29-1.76-.59-1.03-.73-1.91-1.17-2.79-1.61h0Z"/>
  <path class="cls-6" d="m107.82,25.3c-.15.15-.15.44-.15.59.15.73.29,1.47.44,2.2.29.88.88,1.47,1.76,1.76.59.15,1.32.15,1.91-.15-.29-.15-.29-.29-.29-.59,0-.44,0-1.17-.29-1.91.15.15.29-.15.29-.15.15.15,0,.29.15.44.15,0,.15-.15.29-.15.15.15,0,.29.15.44.15,0,.15-.15.29-.29,0,.15.15.29.15.44.15,0,.15-.15.29-.15.15.15.15.29.15.44.15,0,.15-.29.29-.15,0,.15,0,.29.15.44.15,0,.29-.29.59,0,0,.15,0,.29-.15.44-.88.73-1.91,1.32-2.94,1.47-.59.15-1.17,0-1.91,0-.29.15-.44-.15-.59-.29-.59-.59-.88-1.32-1.03-2.05,0-.15,0-.44-.29-.44s-.29-.15-.29-.29c0-.29,0-.44-.29-.73.29-.59.73-1.17,1.03-1.76.15.15.15.29.29.44h0Z"/>
  <path class="cls-12" d="m173.28,17.82c0,.44-.44.73-.59,1.17,0,.15-.15.15-.29.15s-.29,0-.15.29v.29c-.15.15-.15.29-.29.29s-.15-.15-.29-.29c-.15-.44-.44-.73-.59-1.17-.29-.73-.73-1.47-1.32-2.05-.29-.29-.59-.44-.59-.73,1.17.44,2.2,1.03,3.23,1.76.29,0,.59.29.88.29h0Z"/>
  <path class="cls-9" d="m115.75,14.59c.29,0,.29.29.15.44-.29,1.91,0,3.67.59,5.43.29.88.44,1.76.44,2.64,0,.29,0,.59-.15.88,0,.15-.15.15-.29.15.15-1.03,0-2.2-.44-3.23-.59-2.05-.73-4.26-.29-6.31h0Z"/>
  <path class="cls-18" d="m112.37,46.88c0-.15.29-.29,0-.44v-.15h.15c.29.29.44.44.44.88-.15,0-.29-.15-.59-.29h0Z"/>
  <path class="cls-9" d="m63.79,6.52c.15,0,.29,0,.15.15-.15.59-.29,1.17-.59,1.61h-.15c.29-.59.44-1.17.59-1.76Zm-.88,2.94c.15,0,.29,0,.15.15-.15.29-.29.73-.59.88.15-.15.29-.59.44-1.03Z"/>
  <path class="cls-11" d="m32.83,6.37s0,.15,0,0c0,.44-.44.59-.73.59.15-.29.44-.44.73-.59Z"/>
  <path class="cls-9" d="m121.03,5.34c0,.29-.15.59-.73.59.15-.29.44-.44.73-.59Zm-4.7,6.46s.15,0,0,0c.15.29,0,.73-.29.88.15-.29.29-.59.29-.88Zm-12.03,18.64c0,.29.15.59-.29.88.15-.29.15-.59.29-.88ZM63.21,8.42h.15c0,.29-.15.59-.44.73.15-.15.15-.44.29-.73h0Zm53.28,15.85c.29.15.29.29-.15.59.15-.15.15-.29.15-.59Zm1.17-15.12c0,.29.15.59-.29.73,0-.29.15-.59.29-.73Zm1.76-2.5c.15,0,.29,0,.15.15s-.15.29-.44.15c.15,0,.29-.15.29-.29Zm-3.67,7.19c.15,0,.29,0,.15.15,0,.15-.15.15-.29.15.15,0,.15-.15.15-.29Zm-11.3,16.14q.29.15-.15.29s.15-.15.15-.29ZM62.18,11.36c.29.15.15.29-.15.44,0-.15.15-.29.15-.44Zm55.04-1.32c.29.15.29.29-.15.44q0-.29.15-.44Zm-2.05,17.47c.15.29,0,.29-.29.29,0-.15.15-.29.29-.29Zm-11.59,4.99c.15.15.15.29-.15.44,0-.15.15-.29.15-.44Zm12.33-19.08c.15,0,.29,0,.15.15,0,.15-.15.15-.29.15.15-.15.15-.29.15-.29h0Z"/>
  <path class="cls-11" d="m31.8,7.1q.15.29-.29.29l.29-.29Z"/>
  <path class="cls-16" d="m175.63,12.09q.29.15,0,.44v-.44Z"/>
  <path class="cls-9" d="m115.6,26.77c0,.15.15.29-.15.44q0-.29.15-.44Z"/>
  <path class="cls-16" d="m175.63,12.68c.15,0,.29.15,0,.29v-.29Z"/>
  <path class="cls-10" d="m28.28,11.21c.15.15.15.29-.15.29,0,0,0-.15.15-.29Z"/>
  <path class="cls-9" d="m115.31,27.21c.15.15.15.29-.15.29,0-.15.15-.29.15-.29Zm-11.89,6.02q.29.15,0,.29v-.29Zm14.53-24.66c0,.15.15.29-.15.29,0,0,.15-.15.15-.29Zm.73-.88c0,.15,0,.29-.15.29,0-.15,0-.29.15-.29Z"/>
  <path class="cls-10" d="m28.72,10.63c0,.15.15.29-.15.29,0-.15,0-.29.15-.29Zm-.29.29c.15.15.15.29-.15.29,0-.15.15-.15.15-.29Zm.88-1.32c.29.15.15.15-.15.15q.15,0,.15-.15Z"/>
  <path class="cls-9" d="m116.04,12.97c.15,0,.15.15,0,.15,0,0,0-.15,0-.15Zm-55.77,2.94q.15,0,0,0c.15.15,0,.15,0,.15,0,0,0-.15,0-.15h0Z"/>
  <path class="cls-16" d="m175.34,13.56h.15s0,.15-.15.15v-.15Z"/>
  <path class="cls-9" d="m116.04,25.74c.15,0,.29,0,0,0,.15.15,0,.15,0,.15v-.15Zm.29-.59c.15,0,.15.15,0,.15t0-.15Zm-56.36-8.51s.15,0,0,0c.15.15,0,.15,0,.15-.15,0,0-.15,0-.15h0Zm-.44.88s.15,0,0,0c.15.15,0,.15,0,.15-.15,0,0,0,0-.15Z"/>
  <path class="cls-10" d="m29.74,9.16q.15,0,0,0,.15.15,0,0h0Z"/>
  <path class="cls-9" d="m61.74,12.53h.15l-.15.15v-.15Z"/>
  <path class="cls-10" d="m27.84,11.95q.15,0,.15.15c0,.15-.15,0-.15-.15h0Z"/>
  <path class="cls-9" d="m60.56,15.18c.15,0,.29,0,0,0,.15.15,0,.15,0,.15,0,0,0-.15,0-.15h0Zm56.21-4.26q.15,0,.15.15l-.15.15q-.15-.15,0-.29h0Zm-13.06,21.13h.15l-.15.15s0,0,0-.15ZM61.59,12.97s.15,0,0,0c.15.15,0,.15,0,.15q-.15,0,0-.15h0Z"/>
  <path class="cls-10" d="m27.39,12.39s.15,0,.15.15,0,0-.15-.15c0,.15,0,0,0,0h0Zm1.47-2.05s.15,0,.15.15h-.15q-.15,0,0-.15h0Z"/>
  <path class="cls-3" d="m175.92,10.77s0,.15,0,0q-.15.15,0,0Z"/>
  <path class="cls-12" d="m171.37,44.53h.44c.88.44,1.76,0,2.64-.15,1.32-.29,2.5-1.03,3.52-1.76.88-.59,1.61-1.32,2.5-1.91.44-.44.88-.88,1.47-1.32.44-.15.73.15,1.17.29.29.15.59.29.88.29.15.15.59.59.88.73l.88.44c0,.29-.29.44-.44.59-1.03.73-1.76,1.61-2.79,2.35-.73.44-1.47,1.03-2.2,1.47-.29.15-.59.29-1.03,0,.15.59-.29.73-.59.73-.73.29-1.47.29-2.35.44-.29,0-.59-.15-1.03-.15-.73-.29-1.47-.59-2.05-1.03-.15,0-.29-.29-.44-.15,0-.29-.29-.29-.44-.29-.29-.15-.59-.29-1.03-.59h0Z"/>
  <path class="cls-17" d="m189.42,43.21c.29,0,.59.29.73.29.44.15.88.44,1.17.59.29.15.73.29,1.03.59.15.15.29,0,.44.29-.29.29-.73.59-1.03.88-1.17,1.03-2.2,1.91-3.52,2.79-1.17.73-2.35,1.32-3.82,1.61-1.17.15-2.35,0-3.38-.44-.73-.44-1.47-.73-2.2-1.17,0-.44.29-.29.59-.29.73,0,1.61,0,2.35-.29.29,0,.44-.15.44-.44s.29-.44.59-.29c.29.29.44.15.73,0,1.47-.73,2.64-1.76,3.96-2.79.29-.29.59-.44,1.03-.73.29,0,.29.15.44.29q-.15-.73.44-.88h0Z"/>
  <path class="cls-14" d="m188.69,43.79c-.59.44-1.17,1.03-1.76,1.47-1.03.73-2.05,1.61-3.23,2.2-.15,0-.15.15-.29.15-.15.15-.44.29-.44-.15,0-.15-.29-.15-.29-.15-.15,0-.15.15,0,.29.15.29,0,.29-.15.29-.73.29-1.47.44-2.35.44h-1.03c-1.03-.44-2.05-1.03-3.08-1.47-.15-.15-.44-.15-.59-.29,0-.15.15-.15.29-.15.44.29,1.03,0,1.47,0,.59,0,1.17-.29,1.76-.44.15,0,.29,0,.15-.29q-.15-.15,0-.29c.15,0,.15-.15.29-.15s.15,0,.15.15c0,.29.29.29.44.15.59-.29,1.17-.73,1.76-1.17.88-.59,1.61-1.17,2.35-1.91.15-.15.15-.29.29-.59,0-.15.29.15.59-.15.29-.29.44-.44.73-.73.15.15.44.29.15.59,0,0,0,.15.15.15h.15c0-.15.15-.29.29-.15.15.15.59.15.59.44s.15.29.29.29h.59c.15.15.29.29.44.29-.15.59,0,.88.29,1.17h0Z"/>
  <path class="cls-12" d="m135.56,44.68c.44,0,.88.15,1.32.15,1.17.15,2.35-.29,3.23-.73,1.32-.73,2.35-1.76,3.52-2.79.29-.29.44-.59.73-.88.15-.15.15-.29.29-.29.59,1.17,1.17,2.5,2.35,3.23,0,.44-.29.59-.44.88-1.03,1.03-2.2,1.76-3.52,2.35-1.03.44-2.2.73-3.38.29-.73-.29-1.32-.59-2.05-.88-.44-.44-1.03-.59-1.61-.88.15,0-.15-.15-.44-.44q0,.15,0,0h0Z"/>
  <path class="cls-6" d="m150.68,45.41c.44.15.88.44,1.17.44.15,0,.44.15.59.15.44.29.88.44,1.32.73.15.15.44.15.44.44-1.03,1.17-2.35,2.2-3.67,2.94-1.76.88-3.38.73-5.14-.15-.73-.44-1.47-.73-2.35-1.17,0-.29.15-.29.29-.15,2.35.29,4.26-.73,6.02-2.2.59-.44.88-.88,1.32-1.03h0Z"/>
  <path class="cls-14" d="m150.68,45.26c-.88,1.17-2.05,2.05-3.38,2.64-1.17.59-2.35.88-3.52.73-.15,0-.29-.15-.59,0-1.17-.44-2.2-1.17-3.38-1.76.15-.15.29-.15.44-.15.59.29,1.17,0,1.61,0,1.17-.15,2.2-.73,3.23-1.47.73-.59,1.47-1.17,2.05-1.91.29.15.73.15.88.73,0,0,.15.15.29,0,.29,0,.44,0,.59.29.59.29,1.17.59,1.76.88h0Z"/>
  <path class="cls-6" d="m167.26,47.02c-1.17,1.03-2.5,1.76-3.82,2.35-1.32.44-2.64.59-3.96.29-.29-.15-.73-.29-1.03-.44-.88-.44-1.61-.88-2.5-1.32,0-.29.15-.29.29-.15,2.79.29,4.99-.88,7.19-2.64.73,0,1.17.29,1.91.59.44.44,1.03.59,1.61.88,0,.15.15.29.29.44h0Z"/>
  <path class="cls-15" d="m163.45,45.12c-.15.44-.59.59-.88.88-1.03.73-1.91,1.32-3.08,1.61-1.17.29-2.35.44-3.52.29-.44-.15-1.03-.44-1.47-.59-.44-.29-1.03-.44-1.32-.73-.15-.15-.29-.15-.44-.44,1.47.29,2.79-.15,4.11-.59,1.17-.44,2.05-1.17,3.08-1.91.15-.15.29-.15.44-.15h0c1.03.44,2.05,1.03,3.08,1.47-.15,0,0,0,0,.15Zm3.82,2.05c-.59-.29-1.03-.59-1.61-.88-.15-.15-.29-.15-.44-.29-.29-1.17-.29-2.2,0-3.23s.88-2.05,1.47-2.94c.15-.15.29-.29.44-.44.29.15.29.44.29.59.29.88.73,1.76,1.32,2.5v.15s0,.15.15.15c.29.29.59.44.88.73-.29,0-.44.29-.59.59-.44,1.03-.44,2.05-.29,3.08v.44c-.29.15-.44-.15-.73-.15-.44-.15-.73-.29-.88-.29h0Z"/>
  <path class="cls-3" d="m188.69,43.79c-.15-.15-.29-.15-.29-.29-.29-.29-.29-.44,0-.73.44,0,.73.15,1.03.59q-.44.15-.29.59c.15.15.15.29.15.59,0,0-.15.15-.29.15s-.15-.15-.15-.15c0-.44.15-.59-.15-.73h0Z"/>
  <path class="cls-12" d="m50.58,38.22c-.15.15-.15.29-.15.59v2.2c0,.15-.29.15,0,.29.15.15.15.29.29.29,0,.44.29.88.44,1.32-.29.73-.73,1.32-1.47,1.76l-.44.44c-.29.59-.88,1.03-1.47,1.32q-.44.44,0,.73c.29.15.44.29.44.59.73,3.08.44,6.02-1.47,8.66-1.32,1.76-2.94,2.94-4.99,3.67-2.2.88-4.55,1.03-6.9.59-.44-.15-.88-.29-1.32-.29-.88-.44-1.61-.73-2.5-1.17,0-.15,0-.29.15-.59,3.52.59,6.6-.15,9.69-2.05.15,0,.15.15.29.15v-.15c0-.15.15-.29.29-.44,1.76-1.32,2.79-3.23,3.23-5.28.15-.59.15-1.17.15-1.61,0-.73,0-1.47-.15-2.05,0-.44-.15-.73-.29-1.17-.15-.29-.15-.44-.44-.15-.59.29-1.17.59-1.61.88-1.17.59-2.35.88-3.67,1.03-1.03,0-2.2,0-3.38,0-.15,0-.44,0-.73-.15q-.15,0-.15-.15h0c-.15-.15-.44-.15-.59-.44.15-.29.29-.15.59-.15,3.67.73,6.9-.44,9.69-2.64,3.23-2.5,5.28-5.87,6.6-9.69.29-.73.44-1.32.59-2.05,0-.15,0-.29.15-.29.59-.88.59-1.91.59-2.79.15-2.2,0-4.26-1.03-6.31-.29-.59-.59-1.03-1.03-1.47,0-.15.15-.15.29-.15.29,0,.44,0,.59.15.29.15.73.44,1.17.44.44.44,1.03.59,1.47.88.73.73,1.32,1.32,1.76,2.2.15.15.15.44.29.73,0,.29-.15.29-.29.59,0,.15-.15.29-.15.44l-.15.15c0,.29-.15.44-.29.59v.15c-.29.44-.44.88-.73,1.32-.15.44-.44.73-.59,1.17q0,.15-.15.29c-.15.15-.15.29-.29.44,0,.15-.15.29-.15.44h0c-.29.15-.44.44-.29.73q0,.15-.15.29c0,.15-.15.29-.15.44-.29.73-.44,1.32-.73,2.05,0,.15-.15.29-.15.59q0,.15-.15.29v.15q0,.15-.15.29v.15c0,.29-.15.59-.15.88v.15c0,.15,0,.29-.15.59q-.15,0-.15.15h0Z"/>
  <path class="cls-6" d="m57.34,47.76c-.73,1.03-1.76,1.91-2.79,2.64-.15.15-.29.15-.29.44.15.15.44-.15.44.15,0,.15.29-.15.44.15,0,.15.15.29.29.15q.15,0,.15.15c.73,3.08.59,6.16-1.32,8.81-1.32,1.76-3.23,2.94-5.43,3.67-1.91.59-3.67.88-5.72.59-.44-.15-.88-.15-1.17-.29-1.32-.29-2.5-.88-3.82-1.61-.29-.15-.59-.29-.88-.44.15-.44.44-.15.59-.15,1.03.29,2.2.44,3.23.44,2.05-.15,3.96-.44,5.87-1.47.59-.29,1.17-.59,1.76-1.17,0-.15.15-.15.15-.15.44-.15.73-.59,1.03-.88,1.17-1.32,1.91-2.79,2.2-4.55.29-1.47.15-2.94-.29-4.4-.15-.44-.59-.59-1.03-.73-.15,0-.44,0-.44-.29,0-.15.15-.29.29-.44,1.03-.73,1.91-1.61,2.79-2.5.15-.15.29-.29.44-.15h.15s.15,0,.29.15h0c.29.29.59.29.88.44.73.59,1.47,1.03,2.2,1.47Z"/>
  <path class="cls-14" d="m53.96,45.85q-.15,0-.29.15c-.88,1.03-1.91,1.91-2.94,2.64l-.15.15c0,.15,0,.29.15.15.29-.29.44.29.73.15.15.15.29.29.44.29,0,0,.15.15.15.29.44,1.47.44,2.94.29,4.26s-.59,2.5-1.32,3.52c-.44.59-.73,1.17-1.32,1.76-.15.29-.44.44-.73.44q-.15,0-.15.15v.29c-.44.29-1.03.73-1.61,1.03,0,0-.15,0-.15.15-.88.59-1.91.88-2.94,1.17-.73.29-1.61.29-2.5.29-.73,0-1.47,0-2.05-.15-.73-.15-1.47-.44-2.2-.44-1.17-.44-2.2-1.17-3.38-1.76,0-.15.15-.15.29,0,1.32.44,2.64.44,3.96.44s2.64-.29,3.82-.73c1.47-.59,2.94-1.32,4.11-2.5,1.32-1.32,2.2-2.94,2.64-4.7.29-1.76.15-3.38-.29-5.14,0-.15,0-.29-.29-.29-.15,0-.29-.29-.59-.29l-.15-.29c0-.15.15-.15.29-.29.59-.44,1.03-.88,1.47-1.32q.29-.29.29-.73c.44.15.73-.15,1.03-.44s.59-.73.88-1.03c.15,0,.15.15.15.15.44,1.17,1.47,1.91,2.5,2.64q-.29-.15-.15,0h0Z"/>
  <path class="cls-18" d="m31.5,58.62c0,.15,0,.29-.15.44h-.15c.15-.15,0-.29.29-.44h0Z"/>
  <path class="cls-14" d="m62.03,49.96c-1.17-.44-2.2-1.17-3.38-1.76,0-.15.15-.15.29-.15,1.61.29,3.08,0,4.55-.59,1.32-.44,2.5-1.32,3.67-2.2.29-.29.29-.44,0-.73-.88-.73-1.47-1.47-1.91-2.64-.15-.29-.15-.44-.15-.73.29,0,.44.29.59.44l.44.44c.29.44.73.73,1.32,1.03q0,.29.29.44c.15,0,.15.15.29.15l.15.15h.15c.29.15.44.29.73.44.29.88.73,1.47,1.47,1.91.59.59.59.73,0,1.17-.29.29-.73.44-1.03.73h-.15c-.15.44-.88-.15-1.03.44-.29.73-.88.73-1.32,1.03-1.47.59-2.94.88-4.55.73-.15-.15-.29-.15-.44-.29h0Z"/>
  <path class="cls-19" d="m73.19,20.46h0c.29-.15.29-.29.44-.29h0c.15-.15.29-.15.44-.29h0c.15,0,.44,0,.59-.15,1.17-.73,2.35-1.17,3.67-1.32,1.03-.15,2.05-.15,3.08.29.15,0,.29.15.29.29-.15.15-.29.15-.44.15-1.91-.29-3.52.15-5.28.88-1.61.73-3.08,1.76-4.4,2.94-2.79,2.5-4.7,5.43-6.02,8.95-.59,1.61-1.03,3.38-1.03,5.14,0,1.47.29,2.94,1.17,4.26.15.15.15.29.15.44-.29.29-.59,0-.73-.15-.88-.88-1.32-2.05-1.47-3.23,0-.15,0-.44-.15-.59v-1.61c.15-.15.15-.29.15-.44,0-.59.15-1.17.29-1.61.29-.88.44-1.76.73-2.5.88-2.35,2.2-4.55,3.67-6.6.44-.59.88-1.03,1.32-1.47.29-.15.44-.44.73-.73.59-.59,1.17-1.03,1.91-1.61.15,0,.15-.15.29-.15.29-.44.44-.44.59-.59h0Z"/>
  <path class="cls-11" d="m63.79,37.63c.15,0,.15.15.29.29.15,1.03.59,2.05,1.17,3.08.29.29.44.59.88.73.15-.15.29,0,.29.15.44.44.88.73,1.47,1.03.29.15.44.29.73.29.15,0,.15.15.29.15h.15c.15,0,.29.15.44.29,0,.15,0,.29-.29.44-.44-.15-.88-.29-1.32-.44-.15,0-.29-.15-.44-.15-.44-.29-.88-.59-1.32-1.03-.44-.29-.73-.73-1.03-1.03-.15-.29-.29-.59-.44-.73-.59-1.17-.88-2.05-.88-3.08Z"/>
  <path class="cls-18" d="m66.29,20.9v-.29c.29-.44.44-1.03.88-1.47.15,0,.29.15.29.29,0,.29-.15.44-.29.59q-.29.29-.15.59c0,.15-.15,0-.15,0h-.15v.15c.44.15.44.44.29.73,0,.15.15.29.15.29-.29.15-.44,0-.44-.29,0-.15,0-.29-.29-.29-.15.15,0-.15-.15-.29h0Zm-2.94,24.36c-.15,0-.29,0-.44-.15-.15,0-.15-.15-.15-.29s0-.29.15-.29c.44.15.59-.29.73-.44h.15c0,.44.29.73.59.88s.29.44.29.73c-.44,0-.88-.29-1.32-.44h0Z"/>
  <path class="cls-11" d="m63.65,36.31q.15,0,.15.15c0,.29,0,.44-.15.73,0-.15.15-.59,0-.88h0Z"/>
  <path class="cls-7" d="m61.44,47.32c-.29,0-.44-.29-.44-.44h.15c.15,0,.29.15.29.44h0Zm1.03-13.94h-.59c.15-.29.29-.44.59-.29.15.15.15.29,0,.29Z"/>
  <path class="cls-11" d="m63.79,35.58c.15.15.15.29,0,.44-.15-.29-.15-.44,0-.44Z"/>
  <path class="cls-10" d="m50.14,21.49c0,.29.29.29.44.44.29.15.59.29.44.73,0,.15.15.29.15.29.59,1.03.88,2.2,1.17,3.38.15,1.03,0,1.91,0,2.94,0,.44,0,1.03-.15,1.61v.29c0,.15,0,.29-.15.44-.29.29-.29.73-.44,1.03s-.29.73-.15,1.17c-.29.29-.29.73-.44,1.17-.44,1.17-.88,2.2-1.47,3.38-.73,1.32-1.61,2.64-2.64,3.67-1.17,1.47-2.64,2.64-4.26,3.52-1.32.73-2.94,1.47-4.4,1.61-.59.15-1.17,0-1.61,0-.73,0-1.47,0-2.2-.29,0,0-.15,0-.15.15-.15.15-.29.15-.44.29h-.15c-.59,0-1.17-.29-1.76-.29h0s-.15,0-.29-.15h0c-.15-.15-.29,0-.44-.15h0s-.15,0-.29-.15h0s-.15,0-.29-.15h0c-.15-.15-.29,0-.44-.15h0s-.15,0-.29-.15h0c-.15-.15-.15-.29,0-.44.15-.44.44-.88.73-1.17q.15-.15,0-.29c-.73-1.03-1.03-2.2-1.32-3.38,0-.29,0-.59.15-.73-.15,0-.15.29-.15.44.15.88.44,1.76.88,2.5.15.44.44.73.88,1.03.59.44,1.17,1.03,1.76,1.47,1.03.59,2.05.88,3.23,1.03,2.94.29,5.43-.88,7.63-2.64,2.64-2.05,4.55-4.7,5.87-7.78.73-1.61,1.17-3.23,1.61-4.84.15-.29.15-.59.29-1.03.29-1.76.29-3.38-.15-5.14,0-.15,0-.29-.15-.59q0-.15-.15-.29c0-.15-.15-.15-.15-.29-.73-1.47-1.76-2.5-3.38-3.08-.15,0-.29-.15-.59-.29-.59-.44-1.32-.44-1.91-.59-2.2-.15-4.11.44-5.87,1.47-.29.15-.44.29-.73.29,0-.15.15-.29.29-.29,1.47-1.03,2.94-1.76,4.7-1.91.73,0,1.32-.15,2.05,0,.88,0,1.76.15,2.5.59.15,0,.29.15.44.15.15.15.29,0,.44.15l.15.15h0c.15.15.29.15.44.15.15.15.44.15.73.73-.15-.15,0-.15,0,0h0Z"/>
  <path class="cls-19" d="m31.06,44.24c-.44,0-.59-.29-.73-.59-.59-1.03-1.03-2.05-1.17-3.23q0-.15-.15-.29t-.15-.29c.15-.29.15-.59,0-1.03,0-.44.15-.73.15-1.17.15-.29,0-.44.15-.73v-.29c0-.15.15-.15.15-.29v-.29c0-.15.15-.15.15-.29v-.15c0-.15.15-.15.15-.29v-.29q0-.15.15-.29c.15-1.03.59-1.76.88-2.64.73-1.91,1.91-3.82,3.08-5.58.29-.44.59-.73.88-1.17s.59-.73.88-1.03c.73-.73,1.47-1.61,2.5-2.2.15,0,.29,0,.44-.15h0c.15,0,.29-.15.59-.15.88-.59,1.91-1.17,3.08-1.47,1.32-.29,2.5-.44,3.82-.15.29,0,.59.15.73.15s.44.15.59.44c-.44.29-.73,0-1.17,0-1.91-.15-3.67.29-5.43,1.17-2.35,1.32-4.26,3.23-5.87,5.43-2.2,3.08-3.82,6.31-4.4,9.98-.29,1.76-.44,3.52.15,5.28.15.44.29.73.59,1.17,0,.15,0,.29,0,.44h0Z"/>
  <path class="cls-13" d="m29.01,39.69v.44c0,.88.15,1.76.44,2.5.15.59.44,1.03.73,1.47q.15.29,0,.59c-.29.44-.73.88-.88,1.47-.59,0-1.17-.29-1.61-.59-.73-.29-1.32-.59-1.91-.88-.15,0-.15-.15-.15-.29,0-.29.15-.44.29-.73,1.03-1.47,1.76-3.08,2.64-4.7.15-.15.15-.44.44-.44h0c.15.59,0,.88,0,1.17h0Zm8.95-17.47c-.29.15-.73.44-.88.73-.73.73-1.61,1.47-2.35,2.35,0-.29,0-.44.15-.59.15-.59.44-1.32.59-1.91,0-.15.15-.29.29-.29.88-.15,1.61-.44,2.5-.59q-.15.15-.29.29h0Z"/>
  <path class="cls-10" d="m43.25,11.51v-.29c.15-.15.29-.15.44-.29.15,0,.29,0,.29.15,0,.29-.15.29-.29.44-.15.15-.29,0-.44,0h0Zm-14.09,25.39c.15.29.15.44,0,.73,0-.15-.15-.44,0-.73Zm8.81-14.68c0-.15.15-.15.15-.29h.15c0,.15,0,.29-.29.29Zm-8.51,13.5q.15.15,0,.29c-.15-.15-.15-.29,0-.29Zm-.15.59q.15.15,0,.29-.15-.15,0-.29Zm8.22-17.47q0-.15.15-.15s0,.15-.15.15Zm-7.93,15.85c.15,0,.15.15,0,.15t0-.15Zm-.15.59c.15,0,.15.15,0,.15v-.15Z"/>
  <path class="cls-22" d="m150.38,21.78v-.29c.15,0,.15-.15.15-.15v-.29q.15-.15.15-.29v-.15c.15-.15.15-.29.15-.59v-.15c.15,0,.29-.15.29-.29-.15-.44,0-.88-.15-1.17-.15-.15,0-.29.15-.44,1.03-.44,1.91-.59,3.08-.29.29.15.59,0,.73.44-.15.29-.29.15-.59.15-.73,0-1.32,0-2.05.29-.29.15-.44.29-.29.44.44,1.61-.15,3.23-.73,4.7-.73,1.76-1.61,3.52-2.5,5.28-.29.59-.73,1.32-1.03,1.91-.44,1.17-1.32,2.05-2.35,2.94-.44.29-.88.44-1.32.59-.44,0-1.03-.15-1.17-.59-.59-.88-.88-1.91-.44-3.08.44-1.47,1.17-2.79,1.76-4.11.73-1.61,1.03-3.23.29-4.84-.73-2.05-2.94-3.23-4.84-2.5-.59.15-.73.29-.59.88.29,1.17,0,2.2-.44,3.23-.59,1.47-1.17,3.08-1.91,4.55-1.17,2.2-2.35,4.4-3.23,6.75-.59,1.47-.73,2.94-.73,4.55,0,.88.29,1.61.73,2.5.15.15.29.29.15.59q-.15.15-.29.15c-.15-.15-.29-.29-.29-.44-.59-.88-1.03-1.91-1.17-2.94v-.88c0-.15.15-.29-.15-.44v-.15c.15-.15.15-.44.15-.59v-.44c0-.15.15-.15.15-.29v-.29c0-.15.15-.15.15-.29.15-1.17.59-2.2,1.03-3.23.29-.44.44-1.03.73-1.61.15-.73.44-1.17.73-1.76.15-.44.44-.73.59-1.32v-.15s0-.15.15-.15v-.15s0-.15.15-.15v-.44l.15-.15q0-.15.15-.29t.15-.29c.15-.59.44-1.03.59-1.61,0,0,0-.15.15-.15.44-.73.59-1.47.88-2.2.15-.15.15-.29.29-.59.29,0,.29-.15.29-.29,0-.73,0-1.32-.29-1.91q-.15-.44.29-.73c.88-.44,1.91-.73,2.94-.59.44,0,.88.15,1.32.44.15,0,.29.15.59.15h.29l.15.15h0s.15,0,.15.15h0s.15,0,.15.15h0c1.32,1.17,1.76,2.64,1.91,4.26.15,1.32-.44,2.5-.88,3.67-.44,1.17-1.03,2.2-1.47,3.38-.29.73-.29,1.47,0,2.05s.59.73,1.17.29,1.03-.73,1.32-1.32.73-1.03,1.03-1.61c.59-1.17,1.17-2.35,1.76-3.52.15-.44.15-.88.59-1.17.59-.88.88-1.76,1.17-2.64-.29-.15-.15-.29,0-.59h0Z"/>
  <path class="cls-15" d="m135.27,27.5v.44c-.44.88-.88,1.91-1.47,2.79-.29-.29-.29-.73-.44-1.17-.59-1.32-1.17-2.64-1.76-3.96-.88-1.61-1.61-3.08-2.05-4.84-.15-.44-.15-.73-.15-1.17,0-.59-.15-1.32.15-2.05.15,0,.29-.15.44-.29v.44c.44,0,.73.44,1.32.44,0,.29.15.29.44.29q.15,0,.15.15t.15.15c.29-.15.29.15.44.29h.29c0,.15.15.29.29.15.15,0,.29,0,.29.29,0,.59,0,.73-.59.44.44.44.44,1.03.44,1.47.15,1.47.59,2.94,1.32,4.26-.15.59.15,1.32.73,1.91h0Z"/>
  <path class="cls-18" d="m132.19,31.91v.15c-.29,0-.44,0-.59-.29v-.15h.15c.15.29.29.29.44.29Z"/>
  <path class="cls-10" d="m131.6,36.75c.15.15.15.44,0,.59,0-.29-.15-.44,0-.59Z"/>
  <path class="cls-18" d="m130.57,42.62c0,.15,0,.29-.29.29,0-.29.15-.29.29-.29Z"/>
  <path class="cls-10" d="m131.89,35.58c.15,0,.15.15,0,.15q-.15-.15,0-.15Z"/>
  <path class="cls-18" d="m131.6,39.54v.15q-.15,0,0-.15c-.29,0-.15,0,0,0h0Z"/>
  <path class="cls-10" d="m131.75,36.02c.15,0,.15.15,0,.15v-.15Z"/>
  <path class="cls-12" d="m90.06,18.7c1.17.59,2.35,1.17,3.52,1.91,0,.15,0,.29.15.29.44.15.59.59.88.88.73,1.17,1.03,2.5.88,3.82-.15,1.03-.44,2.05-1.03,3.08-.29.59-.59,1.17-.73,1.76-.59,1.47-1.17,3.08-1.47,4.7-.15.73-.29,1.61-.44,2.5-.15.73-.15,1.47-.15,2.2,0,1.03.29,2.05.88,2.94l.44.44.44.44q.15.15,0,.29c-.59.44-1.17.88-1.76,1.17-.73.44-1.32.73-2.05,1.03-.88.29-1.76.44-2.64.29h-.59c-.44.15-.73,0-.88-.15-.59-.15-1.17-.59-1.76-.73-.44-.29-.88-.44-1.17-.73-.15-.15-.44-.15-.59-.44.73.15,1.61.15,2.35.15.59,0,1.17-.15,1.76-.29.73-.29,1.47-.59,2.2-1.03.15-.15.44-.29.59-.29s.15,0,.29-.15c.15-.44.44-.59.73-.73q.29-.29,0-.44c-.29-.29-.73-.59-1.03-1.03-.29-.59-.44-1.17-.59-1.76,0-.29,0-.44-.15-.73v-.29c0-.29.29-.29.29-.44s-.29-.15-.29-.44.15-.29.44-.44c0-.29-.44-.15-.29-.44,0-.15.15-.44.15-.59.15-1.32.44-2.64.88-3.96.59-1.61,1.03-3.23,1.91-4.84.59-1.17,1.03-2.35,1.03-3.67,0-1.47-.44-2.94-1.47-4.11-.59.15-.73,0-.73-.15h0Z"/>
  <path class="cls-17" d="m83.46,45.56c.29,0,.44.15.59.15.59.29,1.32.73,2.05.88,0,.29.29.29.44.29.29.15.44.15.73.44-1.32,1.47-2.79,2.2-4.7,2.5-1.76.29-3.23,0-4.84-.88-.59-.29-1.17-.59-1.91-1.03.29-.44,1.03-.59,1.32-.29.15.15.29.15.59.15,1.76,0,3.23-.44,4.7-1.47.29-.15.59-.29.59-.73,0,0,.15-.15.44,0h0Z"/>
  <path class="cls-3" d="m92.71,41.59h0c0,.29,0,.44-.15.44,0,0-.15,0-.15-.15s-.15-.44.15-.59c.15,0,.15.15.15.29h0Z"/>
  <path class="cls-18" d="m98.43,27.94c0,.15-.15.15-.15.15,0,0-.15-.15,0-.15,0-.15.15-.15.15,0Zm-2.2,5.87c-.15,0-.15-.15,0-.15,0,0,.15,0,0,.15q.15,0,0,0h0Z"/>
  <path class="cls-15" d="m161.98,21.19c.29.15.44.44.59.59.44.73.73,1.47,1.03,2.35.44,1.17.73,2.5,1.03,3.67.15.44,0,.59-.29.88-1.47,1.47-2.94,2.94-4.55,4.26-.29.29-.44.73-.88.88-.15-.29,0-.59.15-.73.59-1.76,1.17-3.52,2.05-5.14.59-1.32,1.03-2.64.88-4.11-.15-.88-.29-1.91-.88-2.64,0-.15-.15-.15-.15-.29,0,0-.15-.15,0-.15h.29c.15.15.44.29.73.44h0Z"/>
  <path class="cls-18" d="m157.43,34.26h-.88c-.15.59-.59.88-1.17.73-.15,0-.29-.29-.15-.44s0-.15-.15-.29c-.29-.15-.29-.44,0-.59q.15,0,.29-.15t.44,0c.15.15.29.44.44.59.29-.15.29-.44.73-.44s.73.15,1.03.29c.15,0,.15.15.15.29s-.15.15-.29.15c0,0-.15-.15-.44-.15h0Zm1.91-4.7c-.15.29-.29.59-.44.88-.29,0-.29-.15-.29-.29,0-.29-.15-.59,0-.88.15-.29-.15-.44-.29-.59.15-.29.29-.15.59,0,.15.29.29.59.44.88Zm-4.26,3.08h0l.88-.44c.15,0,.29-.15.29-.29.15-.15,0-.29.29-.29.15.15.29.29.15.59,0,.15-.15.15-.29.15s-.29.15-.29.15c-.29.59-.59.44-1.03.15Zm3.52-4.99c-.29-.15-.59-.73-.44-1.03,0-.15.15-.15.29-.15.29,0,.44.15.59.29.15.29,0,.29-.15.44s-.29.29-.29.44h0Zm2.05-2.64h.29q.15,0,.15.15,0,.15-.15.15c-.29,0-.29.29-.44.44-.15.15.15.29,0,.44h-.15c-.44-.29-.44-.59,0-.88q.15-.15.29-.29h0Z"/>
  <path class="cls-7" d="m158.46,20.02c-.15,0-.15.15-.29,0s0-.15,0-.29.15-.15.15-.15c.15-.15.29-.15.44,0,.15.29-.15.29-.29.44,0-.15,0,0,0,0Zm.15,12.92c-.29,0-.29-.15-.29-.29s.29-.29.44-.29c.15.15-.15.29-.15.59Z"/>
  <path class="cls-18" d="m188.84,18.7c-.15-.15,0-.29.15-.29s.29,0,.29.15c0,.29-.29.15-.44.15Z"/>
  <path class="cls-5" d="m69.52,43.65c-.15,0-.29-.15-.44-.15v-.15.15h-.29c-.15-.29-.29-.73-.73-.44-.73-.29-1.17-.73-1.76-1.32-.88-1.03-1.32-2.35-1.47-3.67-.15-1.03,0-2.05.15-3.08,1.17-6.02,4.4-10.86,9.54-14.24,1.47-.88,2.94-1.61,4.55-1.91.88-.15,1.76-.15,2.79.15,1.47.44,2.5,1.32,3.08,2.79l.15.15c.15-.88.29-1.61,0-2.5q-.15-.44.29-.59c2.05-.88,4.4-.15,5.43,1.91.73,1.32.73,2.79.29,4.26-.15.59-.44,1.17-.59,1.61-1.03,2.05-1.76,4.26-2.35,6.46-.15,0-.15.15-.29.15s-.29.15-.29.29c0,.29.29.15.44.29-.15,1.03-.29,2.05-.44,3.23,0,1.03,0,2.05.29,3.08.29.73.59,1.32,1.17,1.91-1.47,1.03-2.94,1.91-4.84,2.05-1.76.15-3.08-.44-4.11-1.91-.59-.44-.73-1.17-1.03-1.91s-.29-1.47-.29-2.05c-.15.29-.29.59-.59.73-.73.88-1.32,1.61-2.05,2.35-1.76,2.05-3.96,2.64-6.6,2.35h0Z"/>
  <path class="cls-12" d="m68.93,44.38c-.29-.15-.44-.29-.73-.44.29-.29.59,0,.88,0h0l.15.15c1.47.15,2.79.15,4.11-.44,1.47-.59,2.5-1.47,3.52-2.5.44-.44.73-.88,1.17-1.32.15.59.29,1.17.44,1.76q0,.15.15.29c.44.59.73,1.32,1.32,1.76,0,.29-.15.44-.29.59-.88.88-1.91,1.47-3.23,1.91-.15,0-.29,0-.59.15h-.29c-.73,0-1.61.15-2.35,0-.29,0-.73,0-1.03-.15-.59,0-1.03-.29-1.47-.44-.44-.44-1.17-.88-1.76-1.32h0Z"/>
  <path class="cls-14" d="m72.31,46c.59,0,1.17,0,1.61.15.59,0,1.17-.15,1.76,0,.29.15.44.15.59.15,0-.15-.15-.15-.15-.29s0-.15.15-.15c1.47-.29,2.79-1.17,3.82-2.35.44.29.88.44,1.32.73l.15.15h0c.29.29.88.44,1.17.73.15.15.29.15.44.29-.15,0-.29,0-.29.29,0,.15,0,.29-.15.29-1.17.88-2.5,1.47-3.96,1.76-.44.15-1.03,0-1.47.15-.29,0-.44,0-.59-.29,0-.15-.44-.15-.44-.15-.15.44-.44.15-.73.29-1.03-.29-1.76-.88-2.64-1.32,0,0-.29-.15-.59-.44q0,.15,0,0h0Z"/>
  <path class="cls-7" d="m78.18,39.25c.15-.44.44-.73.73-1.17.15,1.47.29,2.94,1.17,4.26-.44,0-.59-.29-.73-.59-.44-.73-.73-1.47-.88-2.2-.15-.15-.15-.29-.29-.29Z"/>
  <path class="cls-3" d="m80.82,7.84c-.29,0-.15.29-.29.44-.15.29-.29.29-.44,0-.29-.59-.15-1.03.44-1.32,0,.29-.29.29-.29.44,0,0-.15.15,0,.29,0,.15.15.15.29.15,0-.15.15-.29.29,0h0Z"/>
  <path class="cls-15" d="m81.26,17.96c-.73-.15-1.47-.15-2.05,0-.44,0-.88.15-1.47.15,1.17-.44,2.5-.44,3.82-.15-.15.15-.29.15-.29,0h0Z"/>
  <path class="cls-3" d="m80.82,7.84c.29,0,.29.15.44.29s.15.44.15.59v.15c-.15,0-.29,0-.29-.15v-.29c-.15-.15-.15-.29-.29-.59h0Z"/>
  <path class="cls-15" d="m77.15,18.26h0q.15-.15.15,0c.15,0,0,0-.15,0h0Z"/>
  <path class="cls-7" d="m78.76,41.74q-.15,0-.15-.15s.15,0,.15.15Z"/>
  <path class="cls-12" d="m81.7,44.53h-.15c0-.15.15-.15.15,0Z"/>
  <path class="cls-5" d="m22.26,22.22c-1.61.44-3.23,1.03-4.7,1.91-1.91,1.17-3.08,2.94-3.38,4.99-.29,1.61.15,3.08,1.03,4.55q.29.44-.15.73c-1.03.73-2.2,1.47-3.52,1.76-1.76.29-3.23,0-4.7-1.03-.59-.44-1.17-.88-1.61-1.47-.44-.73-1.03-1.47-1.17-2.35-.59-1.76-.59-3.52.29-5.14.88-1.91,2.2-3.52,3.82-4.7,2.05-1.32,4.26-2.2,6.6-2.79,1.91-.44,3.82-.73,5.87-1.03,1.61-.15,3.38-.29,5.14-.44.29,0,.44-.15.59-.44.59-1.03,1.17-1.91,1.61-2.94.88-1.61,1.91-3.23,3.23-4.55.73-.88,1.61-1.61,2.64-2.2,1.32-.73,2.64-1.17,4.11-.88.29,0,.59.15.88.15,1.91.59,3.08,1.76,3.67,3.67.59,2.05.29,3.96-1.17,5.72-1.03,1.17-2.35,2.05-3.82,2.64-1.76.73-3.67,1.32-5.43,1.76-.44.15-.59.29-.73.59-.88,2.64-1.76,5.43-2.94,8.07-1.76,4.4-3.82,8.66-6.16,12.62-.44.59-.73,1.17-1.17,1.91,0,.29.29.29.44.29s.29.15.59.29c2.05,1.03,4.11,1.91,6.16,2.79.44-.15.73.15,1.17.29.88.29,1.76.73,2.79.88,3.23.73,6.31.88,9.54-.15.73-.29,1.32-.59,2.05-.73.29,0,.29-.15.59-.15.15.44.15.88.29,1.32.29,3.38-.88,6.16-3.67,8.07-1.61,1.17-3.38,1.76-5.43,2.05-2.79.44-5.28-.29-7.63-1.61-3.08-1.61-5.72-3.67-8.22-5.87-.73-.59-1.32-1.32-2.2-1.76q-.44-.29-.73.15c-2.35,2.64-5.28,4.11-8.95,3.96-2.05,0-3.82-.88-5.28-2.5-.59-.88-1.03-1.47-1.17-2.2-.44-1.32-.44-2.64,0-3.96.88-2.5,2.64-4.26,5.14-5.14,2.05-.73,4.11-.73,6.16,0,.44.15,1.03.29,1.47.59.15.15.29,0,.44-.15.29-.29.44-.73.59-1.03,1.32-2.2,2.35-4.55,3.52-6.75,1.61-3.23,3.23-6.31,4.7-9.54,0-.15.15-.29.29-.59-.59,0-.88.15-1.47.29h0Z"/>
  <path class="cls-7" d="m43.83,47.02c-1.17.73-2.64,1.17-3.96,1.47-2.5.44-5.14.29-7.63-.29,0-.29.15-.29.29-.29h.29c.15,0,.15.15.15.15h.59c.15.15.29.15.44.15h1.32c.29.15.44.15.73,0h1.61c.73,0,1.47-.15,2.2-.29,1.17-.29,2.2-.73,3.38-1.32.15,0,.29,0,.44.15,0,0,.15.15.15.29h0Z"/>
  <path class="cls-10" d="m32.38,47.76c0,.15-.15.15-.29.29-.44,0-.73-.15-1.17-.29-.88-.29-1.76-.59-2.79-1.03,0-.15.15-.15.29-.15.59.15,1.32.44,1.91.59.73.29,1.47.44,2.05.59h0Z"/>
  <path class="cls-4" d="m33.41,47.32c0-.29.15-.44.44-.29.15.15.44.29.59.29-.44.15-.73.15-1.03,0Z"/>
  <path class="cls-10" d="m21.96,43.94c-.29,0-.59-.15-1.03-.29-.15,0-.15-.15-.15-.29.44.15.88.15,1.17.59Z"/>
  <path class="cls-13" d="m31.5,47.02c.59,0,1.17.15,1.76.29,0,.15-.15.15-.15.15-.59-.15-1.17-.15-1.61-.44Z"/>
  <path class="cls-21" d="m41.34,56.42c.15.15.29.29.29.44-.29,0-.44-.15-.44-.29t.15-.15h0Z"/>
  <path class="cls-10" d="m35.91,48.2c-.15.29-.29.29-.59,0h.59Zm-1.91-.15c-.15.15-.29.15-.44,0,.15,0,.29-.15.44,0Zm9.69-1.47h-.44c.15-.29.29-.29.44,0Zm-6.02,1.47c0,.15,0,.29-.29.15,0-.15.15-.15.29-.15Zm-4.7-.15q-.15.15-.15,0h.15Z"/>
  <path class="cls-13" d="m30.77,46.73h.44c-.15.15-.29.15-.44,0Zm-1.17-.29h.44c-.15,0-.29.15-.44,0Z"/>
  <path class="cls-13" d="m31.21,46.88h.29c-.15.15-.29.15-.29,0Zm-1.91-.59h.29c0,.15-.15.15-.29,0Zm1.03.29h.29c0,.15-.15.15-.29,0Zm-.29,0h.29-.29Z"/>
  <path class="cls-4" d="m34.44,47.46h.15c0,.15-.15,0-.15,0Z"/>
  <path class="cls-3" d="m79.2,10.33c-.15-.15-.15-.29-.15-.44.29-.44-.15-.59-.29-.88-.15-.15-.29,0-.29-.29q.59-.15.88.29c.29.59.15.88-.15,1.32h0Z"/>
  <path class="cls-16" d="m74.07,19.87c0,.29-.29.29-.44.29.15-.15.29-.29.44-.29Zm-.88.59q0,.15-.29.15s.15-.15.29-.15Zm.44-.29q0,.15-.29.15c0-.15.15-.15.29-.15Z"/>
  <path class="cls-6" d="m135.27,27.5c-.15,0-.29,0-.44-.29-.73-1.61-1.47-3.08-1.91-4.84-.15-.59-.15-1.03-.15-1.61,0-.29,0-.44-.29-.59-.15,0-.15-.15-.15-.29-.15-.15-.15-.29,0-.44s.29,0,.29.29c0,0,0,.15.15.15.15-.15,0-.29.15-.44.15,0,.29,0,.59-.15.29.15.44.44.73.44.15,0,.44.15.59.29.29.29.44.29.88.44.15,0,.29.29.59.44.15,0,.15.15.44.15,0,1.03-.15,2.2,0,3.23l-.29.29c0,.44-.15.73-.29,1.03-.15.15-.15.44-.29.73-.15.15,0,.29-.15.29q0,.15-.15.29c-.15,0-.15.15-.15.15v.15l-.15.15h0s0,.15-.15.15h0c.29-.15.15,0,.15,0h0Z"/>
  <path class="cls-5" d="m159.48,34.99c.59-.88,1.47-1.61,2.2-2.35,1.17-1.17,2.35-2.35,3.67-3.52.15-.15.29-.29.29-.59-.44-1.91-.88-3.82-1.76-5.58-.29-.88-.88-1.61-1.32-2.35-.73-.88-1.61-1.47-2.64-1.61h-.15c-.15-.15,0-.15.15-.29,1.61-2.2,3.52-3.23,6.31-3.08,1.47.15,2.64.73,3.67,1.76.59.73,1.03,1.47,1.47,2.35.29.73.59,1.32.88,2.05.44-.29.59-.73,1.03-1.17.29-.15.44-.15.88-.15-.15-.15-.29-.15-.44-.29.29-.59.59-1.03.88-1.61.88-1.47,1.76-2.94,2.2-4.55.15-.44.29-1.03.29-1.47,0-.15.15-.29.15-.59.59,0,1.03.29,1.47.29.29.15.59.29,1.03.44.59.29,1.03.59,1.61.88,1.17.88,1.47,2.05,1.17,3.38-.15.73-.44,1.32-.88,1.91-1.03,1.91-2.5,3.38-3.96,4.84-.59.59-1.17,1.03-1.76,1.61-.29,0-.59-.15-.59-.29,0-.29.15-.59.29-.88q.44-.44-.15-.73c-.15,0-.29-.15-.29-.15-.29-.29-.44-.15-.44.15-.15.29-.15.59-.59.44-.29-.15-.44-.59-.29-.88,0,0,.15-.15,0-.15-.44.15-.59.29-.44.73.15.29.29.44.44.59.29.15.29.29.15.59h.15c.15-.15.15-.44.44-.44s.29.29.44.44c.15.29.15.73.59.88-.44.44-.88.88-1.32,1.17-.15.15-.29.29-.15.44.59,2.5,1.17,5.14,2.2,7.49.44,1.17,1.03,2.2,1.76,3.08.88,1.03,1.76,1.61,3.08,1.76q0,.15-.15.15c-1.17,1.03-2.5,2.05-3.96,2.94-.88.44-1.91.88-2.94,1.03-1.61.15-2.79-.29-3.82-1.47q-.15-.15-.29-.29c-.59-.59-.88-1.17-1.17-1.91-.73-2.05-1.32-4.11-1.76-6.31,0-.29-.15-.59-.59-.29-1.76,1.76-3.38,3.52-4.4,5.87-.44,1.03-.88,2.2-.73,3.38-.73,0-2.05-.73-2.79-1.76-.44-.88-.73-1.76-.59-2.64s.44-1.61,1.03-2.35c.44-.29.73-.44,1.17-.29-.15-.15-.44-.15-.29-.44,0-.15.29-.15.44-.29-.44.15-.59.15-.88.15h0Z"/>
  <path class="cls-12" d="m167.12,39.1c-.88,1.32-1.61,2.79-1.91,4.26-.15.44-.15.88,0,1.32,0,.29,0,.73.15,1.03-.59-.15-1.17-.44-1.76-.59-.15-.29-.44-.29-.59-.29-.88-.44-1.76-.88-2.64-1.47.29,0,.73.15,1.03.29.15,0,.29,0,.29-.15v-.29c-.29-1.17.15-2.2.44-3.38.59-1.61,1.61-2.94,2.79-4.26.29-.44.59-.88,1.17-1.17.29,1.61.59,3.23,1.03,4.7h0Z"/>
  <path class="cls-7" d="m166.09,33.81c.15-.29.29-.44.44-.59.15.73.29,1.32.44,1.91.29,1.32.73,2.79,1.17,4.11.29,1.03.73,2.05,1.47,3.08-.29,0-.59-.29-.73-.59-.88-1.17-1.32-2.64-1.76-3.96-.44-1.32-.73-2.64-1.03-3.96Z"/>
  <path class="cls-5" d="m107.09,27.65c.15-.15.15-.29.29-.29.29,1.17.59,2.35,1.61,3.08.73.59,1.61.73,2.5.59,1.61-.29,2.94-1.17,4.11-2.35,1.47-1.61,2.2-3.52,2.05-5.72,0-.59-.15-1.17-.29-1.61-1.32-3.38-1.03-6.9.59-10.13,1.17-2.79,3.23-4.99,5.87-6.31,2.5-1.32,5.28-1.47,8.07-.88,1.32.44,2.5,1.17,3.38,2.05,2.64,2.79,2.05,6.6-.29,8.81-1.03,1.03-2.35,1.47-3.82,1.91h-.15c.15-.59.44-1.17.44-1.76.15-.88-.15-1.61-.59-2.35-.88-1.47-2.5-1.61-3.82-.44-.29.15-.44.44-.59.73-1.17,2.35-1.76,4.7-.88,7.19.44,1.32,1.03,2.64,1.61,3.82s1.17,2.5,1.76,3.67c1.17,2.5,1.32,5.14.44,7.78-1.03,3.38-3.08,5.87-5.87,7.78-3.08,2.05-6.6,2.79-10.27,2.5-1.03-.15-1.91-.29-2.79-.59-1.91-.88-3.38-1.76-4.7-3.38-.59-.88-1.17-1.91-1.32-2.94-.59-2.2-.44-4.26.29-6.31.59-1.76,1.47-3.38,2.35-4.84h0Z"/>
  <path class="cls-2" d="m131.01,16.64q-.15.15,0,0-.15,0,0,0Z"/>
  <path class="cls-18" d="m126.46,47.02c0,.15-.15.15,0,0-.15.15-.15,0-.15,0q0-.15.15,0Z"/>
  <path class="cls-13" d="m135.56,44.68h0c-.15.15-.15,0-.29,0h.29Zm-.44-.15h.15-.15Z"/>
  <path class="cls-5" d="m68.2,1.23c.88.29,1.76.59,2.5,1.32,1.03,1.03,1.61,2.2,1.76,3.67.15,1.32-.29,2.64-.73,3.82-.88,1.91-1.91,3.67-2.94,5.43-.59,1.17-1.17,2.2-1.76,3.38,0,0-.15.15-.15,0-.44-.29-.73,0-.88.44,0,.15-.29.29-.44.29-.29-.15-.44-.44-.44-.73,0-.15.15-.29.15-.44-.59.29-.59.73,0,1.17.29.29.29.44.29.73.29-.15.15-.88.73-.44-.44,1.17-1.03,2.2-1.47,3.38-1.17,2.64-2.35,5.14-3.08,7.93-.59,2.05-1.03,4.26-1.03,6.31,0,.73,0,1.61.29,2.35.29,1.17.73,2.2,1.61,2.94l.29.29c0,.15-.15.29-.29.29-.88.59-1.91,1.17-2.94,1.61s-2.2.59-3.38.44c-1.47-.15-2.64-.73-3.67-2.05-1.03-1.76-1.32-3.52-1.03-5.43.15-1.17.44-2.2.88-3.38.29-.88.73-1.76,1.03-2.64.15-.15.44,0,.59-.15-.15-.15-.29,0-.44-.15.29-.88.73-1.61,1.17-2.5,2.2-4.26,4.4-8.37,6.31-12.77,1.32-2.94,2.64-6.02,3.52-9.1.44-1.61.88-3.23.88-4.99v-1.03c0-.29,0-.44.29-.44.73.29,1.47.29,2.35.44h0Z"/>
  <path class="cls-14" d="m55.43,25.89c-.15,0-.15-.15-.29-.29-.29-.73-.73-1.32-1.17-1.91-.15-.15-.44-.44-.44-.73.73.29,1.47.73,2.2,1.03.15.15.29.15.59.29v.15c-.29.59-.59,1.03-.88,1.47h0Z"/>
  <path class="cls-9" d="m51.32,34.99c.15-.73.29-1.32.73-1.91,0,0,.15,0,.15.15-.29.44-.59,1.17-.88,1.76.15,0,0,0,0,0Zm2.5-5.72c.15-.44.29-.88.73-1.32-.15.44-.44.88-.73,1.32Zm2.35-4.84h0c0-.29.15-.59.29-.88.15,0,.29,0,.15.15,0,.29-.15.59-.44.73h0Zm1.17-2.2c.15-.29.15-.44.29-.73q.15,0,.15.15c-.15.15-.15.44-.44.59h0Zm-6.6,14.97c0-.29,0-.59.15-.73.15.29.15.44-.15.73Zm7.49-16.73c0-.15.15-.29.29-.59q.15,0,.15.15c-.15.15-.15.44-.44.44h0Zm.59-1.32c0-.15.15-.29.29-.59h.15c0,.29-.15.44-.44.59Zm-4.26,8.66c0-.29.15-.44.29-.59.15.15-.15.29-.29.59Zm-3.96,10.13v-.44c.29.15.29.29,0,.44Zm2.05-6.46c0-.15-.15-.29.15-.44.29.29,0,.44-.15.44Zm2.35-4.55c0-.15,0-.29.15-.44.15.15,0,.29-.15.44Zm1.61-3.52v-.15h.15c.15.15,0,.15-.15.15h0Zm-5.58,12.33v-.15c.29,0,.15.15,0,.15Zm1.17-3.08v-.15q.15,0,0,.15Zm.88-2.05v-.15c.15,0,.15.15,0,.15Zm-2.05,5.58v-.15c.15,0,.15.15,0,.15Z"/>
  <path class="cls-12" d="m16.39,34.11c0-.15-.15-.29-.29-.44-1.03-1.17-1.47-2.64-1.47-4.11,0-.73.15-1.32.44-1.91.15-.29.29-.59.59-.44,0-.29-.15-.44,0-.73.59-.73,1.17-1.47,2.05-1.91.15,0,.29-.15.29-.29.15-.15.29-.15.59,0,.15.15.29,0,.29-.15s0-.29.29-.29c.88-.29,1.76-.73,2.79-1.03-1.03,2.05-2.05,4.11-3.08,6.31-.73,1.61-1.47,3.23-2.5,4.99h0Z"/>
  <path class="cls-3" d="m49.12,16.94h0c.29,0,.44.15.44.44,0,0,0,.15-.15.15s-.44,0-.59-.29c0-.29.15-.29.29-.29h0Zm3.38,3.96c0,.15,0,.29-.29.29h-.44c0-.15.15-.15.15-.29l.44-.44q.15-.15.29-.15s.15,0,.15.15v.15c0,.15-.29.15-.29.29h0Z"/>
  <path class="cls-14" d="m49.26,20.75c-.15,0-.29,0-.44-.15.29,0,.44,0,.44.15Z"/>
  <path class="cls-7" d="m50.14,21.49s-.15,0,0,0q0-.15,0,0c.15,0,0,0,0,0Z"/>
  <path class="cls-12" d="m149.06,25.16c-.15.29-.44.44-.29.73,0,.15-.15.29-.15.44-.59,1.17-1.32,2.5-1.91,3.67-.44,1.03-1.17,1.91-1.91,2.64-.15.15-.44.29-.59.44-.59.29-.73.15-1.03-.44-.44-.73-.44-1.61-.15-2.35.59-1.32,1.17-2.64,1.76-3.96.29-.44.44-1.03.44-1.47,0-.15,0-.29.15-.29.15-.15.29-.29,0-.59v-.29c0-1.61-.44-3.08-1.61-4.26,0,0-.15-.15-.15-.29.59.15,1.17.59,1.76.73.29.15.59.44,1.17.44.29.29.73.44,1.03.73,1.03,1.03,1.47,2.2,1.61,3.38-.15.29-.15.44-.15.73Z"/>
  <path class="cls-7" d="m50.58,41.15s0,.15-.15.15-.15.15-.29,0c-.15-.15,0-.29.15-.29h.29v.15h0Z"/>
  <path class="cls-5" d="m133.51,42.18c-.44-.73-.88-1.61-1.03-2.5-.29-1.32-.15-2.64.29-3.96.29-1.17.73-2.2,1.17-3.38,1.03-2.2,2.2-4.4,3.23-6.6.59-1.17,1.03-2.35,1.32-3.67.15-.73.29-1.61,0-2.5q-.15-.44.29-.59c1.91-.88,4.11-.15,5.28,1.76.88,1.47.88,2.94.44,4.55-.15.59-.44,1.17-.59,1.61-.59,1.17-1.17,2.35-1.61,3.67-.29,1.03-.15,1.91.44,2.79.29.59.88.73,1.61.44.44-.15.73-.29,1.17-.59.88-.73,1.61-1.61,2.05-2.64.73-1.61,1.61-3.08,2.35-4.7.73-1.47,1.32-2.94,1.76-4.4.29-.88.29-1.91,0-2.79-.15-.29,0-.29.15-.44.88-.44,1.91-.59,2.94-.29,1.76.59,2.64,1.76,3.08,3.52-.15.15-.29,0-.44.15.15.15.29.15.44.29.15.88,0,1.76-.15,2.64-.15.44-.29,1.03-.59,1.47-1.32,2.79-2.35,5.58-2.79,8.66-.15,1.17-.29,2.35-.15,3.38.15,1.17.59,2.35,1.47,3.23,0,.15-.15.29-.29.29-1.03.73-2.05,1.32-3.23,1.61-3.38.88-5.58-1.03-6.31-3.67-.15-.29-.15-.59-.15-.88-.15,0-.29.29-.29.29-.88,1.17-1.91,2.35-3.08,3.38-.73.59-1.47,1.03-2.2,1.47-2.35,1.17-4.7.29-6.02-1.47q-.44,0-.59-.15h0Z"/>
  <path class="cls-1" d="m157.72,22.07c-.15.15-.44,0-.59-.15-.15,0-.15-.15-.15-.29s.15-.15.29,0q.15,0,.29.15c.15,0,.15.15.15.29Z"/>
  <path class="cls-14" d="m149.06,25.16c-.29-.44-.15-.88-.29-1.17-.15-1.03-.59-1.76-1.17-2.5,0-.15-.15-.15-.15-.29.88.29,1.76.88,2.64,1.32.15.15.15.29,0,.29-.29.73-.59,1.61-1.03,2.35Z"/>
  <path class="cls-10" d="m150.68,20.02c.29.15.29.29,0,.44,0,0,0-.15,0-.44Zm0,.73c.15,0,.29.15,0,.29-.15,0-.15-.15,0-.29Zm-.15.59s.15,0,0,0q.15.15,0,.15c-.15,0-.15-.15,0-.15Zm-.15.44s.15,0,0,0q.15.15,0,.15s0-.15,0-.15Z"/>
  <path class="cls-3" d="m189.42,46.73c-.15,0-.29,0-.29-.15-.15-.15,0-.29,0-.44s.15,0,.29,0c0,0,.15,0,.15.15q.29.15-.15.44h0Zm-3.23-4.11c-.15.15-.15.29-.29.15-.15-.15-.15-.29,0-.44s.29-.29.44-.29.29.15.15.29c0,.15-.15.15-.29.29h0Zm-4.99,3.08c.29-.44.59-.44.73-.15,0,0,.15.15,0,.29,0,.15-.15.15-.29.15,0-.29-.29-.15-.44-.29Zm-1.61,1.32c0,.15-.15.15-.15.15-.15-.29-.15-.59.15-.88.15.15,0,.44,0,.73h0Z"/>
  <path class="cls-18" d="m146.42,46.88c.29,0,.29.15.29.29s-.15.15-.29,0c-.15,0-.15-.15,0-.29Z"/>
  <path class="cls-17" d="m72.31,46h0c.15.88.73,1.47,1.17,2.05.29.29.59.59.88.73,0,.15-.15.29-.29.29-1.03.73-2.2,1.47-3.38,2.05-1.47.73-3.08,1.03-4.7.73-.59-.15-1.17-.29-1.76-.59-.88-.44-1.61-.88-2.5-1.32h1.47c1.47-.15,2.94-.29,4.26-1.17.15-.15.44-.29.44-.44s0-.29.15-.29c.29,0,.15.29.29.29.59-.29,1.17-.73,1.61-1.03.59-.29.44-.44,0-.88-.59-.44-1.03-1.03-1.32-1.61-.15-.15-.15-.29-.15-.44.29-.15.44-.15.59.15,0,.15.15.15.29.29,1.17.44,2.05.88,2.94,1.17h0Z"/>
  <path class="cls-18" d="m44.42,54.22c-.15.15-.29.15-.29,0s0-.29.15-.29.15-.15.29,0c0,.15-.15.29-.15.29Z"/>
  <path class="cls-7" d="m47.8,51.87c.15,0,.29,0,.29.15s-.15.15-.29.15-.29,0-.29-.15c0-.15.15-.15.29-.15Z"/>
  <path class="cls-21" d="m48.82,59.79c-.15,0-.29-.15-.15-.15s.15-.15.15.15h0Z"/>
  <path class="cls-3" d="m49.85,54.36q-.15,0-.29-.15v-.15c0-.15.15,0,.29,0s.29.15.44.29c-.15,0-.29,0-.44,0h0Zm-2.94,4.11c.15-.29.29-.15.44,0s0,.29-.15.44h-.15c0-.15,0-.29-.15-.44Z"/>
  <path class="cls-18" d="m47.94,60.23h0c-.15.29-.29.29-.44.15v-.29c.15,0,.29-.15.44.15h0Z"/>
  <path class="cls-16" d="m65.99,42.33c.44,0,.59.29,1.03.59.15,0,.29.15.44.44-.73-.15-1.17-.59-1.47-1.03h0Zm3.08,1.61c-.29.15-.59-.15-.88-.15h0s-.15,0-.15-.15c-.15,0-.15-.15-.29-.15,0,0,0-.15.15-.15.29.29.73.29,1.17.59h0Z"/>
  <path class="cls-18" d="m68.93,47.46h0q.15.29,0,.44h-.15c-.15-.29-.15-.44.15-.44h0Z"/>
  <path class="cls-5" d="m31.06,44.24c-1.32-1.91-1.47-4.11-1.17-6.31.73-5.72,3.38-10.42,7.49-14.24,1.32-1.17,2.79-2.2,4.4-2.79s3.38-.73,4.99-.29c.44.15.88.29,1.32.44,1.17.73,2.05,1.61,2.64,2.94-.15.15-.29,0-.44,0,.15.44-.15.88.15,1.32.29-.15.15-.59.59-.44.59,1.47.59,2.94.44,4.55,0,.29-.15.44-.15.88-.29.29-.59.29-.88.59-.15.15-.29.15-.15.29,0,.15.29.15.29,0s.29-.15.44,0c-.88,3.82-2.35,7.49-4.99,10.42-2.05,2.2-4.4,3.96-7.34,4.7-1.76.44-3.38.29-5.14-.15-.73-.29-1.76-.88-2.5-1.91h0Z"/>
  <path class="cls-2" d="m51.17,24.57c0,.15-.15.15-.15,0v-.29q.15.15.15.29Z"/>
  <path class="cls-10" d="m29.01,39.69c-.29-.29-.15-.59-.15-.88q.15,0,.15.15c.15.29.15.59,0,.73Z"/>
  <path class="cls-15" d="m135.85,26.48v-.29.29Zm-.59,1.03v-.15s0,.15,0,.15Zm.15-.15v-.15.15Zm.15-.44v-.15c.15,0,0,.15,0,.15Z"/>
  <path class="cls-3" d="m136.44,24.42s.15,0,0,0c.15.15,0,.15,0,0,0,.15,0,0,0,0Z"/>
  <path class="cls-15" d="m135.41,27.21s0-.15,0,0q.15-.15,0,0Z"/>
  <path class="cls-18" d="m93.29,22.07c0-.15,0-.44.29-.44.15,0,.44.15.59.29,0,0,0,.15-.15.15-.29.15-.59.29-.73,0h0Z"/>
  <path class="cls-7" d="m93.29,23.69c0-.15,0-.29.15-.29s.29.15.29.29,0,.15-.15.15c0,.15-.15,0-.29-.15Zm-2.79,4.4c.15,0,.29,0,.29.15.15,0,.15.15.15.29s-.15.15-.29.15-.15,0-.29-.15c.15-.15.15-.29.15-.44Z"/>
  <path class="cls-20" d="m81.85,29.41c-.29.59-.44,1.03-.73,1.61-.73,1.47-1.91,2.35-3.52,2.64-1.17.29-2.35-.44-2.79-1.61-.29-.88-.44-1.91-.15-2.79.44-2.35,1.61-4.4,3.23-6.16.59-.59,1.17-1.17,1.91-1.47.59-.29,1.17-.44,1.76-.29.73.15,1.17.59,1.47,1.17.29.73.44,1.61.29,2.35-.15,1.17-.44,2.5-1.17,3.52,0,.44-.15.73-.29,1.03h0Z"/>
  <path class="cls-3" d="m76.12,46c.15,0,.29,0,.29.15s.15.29,0,.29c0,.15-.15,0-.29,0s-.29-.15-.44-.15-.15-.15,0-.29h.44Z"/>
  <path class="cls-20" d="m36.64,15.47c-.73.44-1.47.73-2.35.73-.29,0-.59,0-.88-.15-.15-.15-.29-.15-.15-.44.59-1.61,1.32-3.08,2.35-4.4.59-.73,1.47-1.17,2.5-1.17,1.32,0,1.61.88,1.61,1.91,0,.73-.29,1.32-.73,1.76-.73.59-1.47,1.17-2.35,1.76Zm-25.83,28.03c-.73.59-1.61,1.17-2.5,1.61-.29.15-.59.29-1.03.29-1.03,0-1.61-.73-1.32-1.61.29-.73.73-1.03,1.47-1.17s1.47,0,2.05.29c.29.15.73.29,1.03.44.15,0,.29,0,.29.15h0Z"/>
  <path class="cls-4" d="m10.96,31.91s0-.15.15-.15h0s0,.15-.15.15h0Z"/>
  <path class="cls-4" d="m69.66,6.81c.15-.15.29-.15.29,0,.15.15,0,.29-.15.29-.15.15-.29.29-.15.44,0,0,0,.15-.15.15s-.15,0-.15-.15c0-.29.15-.44.29-.73Z"/>
  <path class="cls-3" d="m72.6,47.76v.29c0,.29-.15.29-.29.15-.15,0-.29-.15-.29-.29s.15-.15.29-.15h.29Zm0,0s.15-.15,0,0c.15-.15.15,0,0,0h0Z"/>
  <path class="cls-20" d="m47.06,30c-.29.73-.59,1.61-.88,2.35-.73,1.47-1.47,2.64-2.64,3.82-1.03.88-2.2,1.61-3.67,1.47-1.17,0-1.91-.59-2.2-1.76-.15-.88-.15-1.91.15-2.79.88-3.08,2.35-5.87,4.7-8.22.44-.44.88-.88,1.47-1.17.44-.29.88-.44,1.47-.44.73,0,1.17.29,1.61.88.29.59.44,1.32.44,2.05v1.32c0,.29.15.44,0,.73v.15c.15.73-.15,1.17-.44,1.61h0Z"/>
  <path class="cls-8" d="m78.62,32.05c-.73.59-1.47,1.03-2.5.59-.88-.44-1.17-1.17-1.32-2.05-.15-1.32.29-2.64.88-3.82.59-1.17,1.32-2.35,2.2-3.38.44-.44.88-.73,1.47-1.17.15,0,.15-.15.29-.15.29,0,.44,0,.59-.29l.15-.15c.73-.29,1.61.15,1.91.88.29.59.29,1.32.29,1.91-.73.88-1.47,1.61-2.05,2.5-.73,1.17-1.32,2.64-1.61,3.96-.29.44-.15.88-.29,1.17h0Z"/>
  <path class="cls-13" d="m78.62,32.05v-.73c-.15-.29.15-.29.15-.59.44-1.76,1.17-3.38,2.35-4.84.29-.44.73-.88,1.32-1.17,0,.88-.29,1.76-.59,2.5-.59,1.17-1.17,2.35-1.61,3.52-.44.59-.88,1.03-1.61,1.32h0Z"/>
  <path class="cls-12" d="m35.03,12.68c.29-.59.73-1.17,1.17-1.61.44-.44,1.03-.59,1.61-.73.88,0,1.03.59,1.03,1.17s-.29,1.03-.73,1.47c-1.03,1.03-2.2,1.76-3.52,2.2-.29,0-.44.15-.73,0,.15-.88.73-1.61,1.17-2.5h0ZM6.7,44.38c-.44-.73-.15-1.32.73-1.32.59,0,1.03,0,1.61.15.29,0,.29.15.15.29-.44.44-1.03.73-1.76.88-.29.15-.44.15-.73,0h0Zm35.22-8.37c-.73.59-1.61.73-2.5.59-.73,0-1.17-.59-1.17-1.47,0-1.03.15-2.05.44-3.08.73-2.2,1.76-4.11,3.23-5.87.73-.88,1.47-1.61,2.35-2.2.29-.15.44-.29.73-.29.73-.15,1.17,0,1.32.73.15.59.29,1.17.29,1.76v.88c-1.17,1.32-2.2,2.64-3.08,4.11-.73,1.32-1.32,2.79-1.61,4.26.15.29.15.44,0,.59Z"/>
  <path class="cls-13" d="m41.92,36.16c0-.73.15-1.47.44-2.05.73-2.2,1.91-4.26,3.38-6.02.29-.29.59-.59.88-.73,0,.88-.15,1.76-.44,2.5-.44,1.47-1.03,3.08-2.05,4.4-.73.59-1.32,1.32-2.2,1.91h0Z"/>
</svg>